 <svg
              className='w-full h-full'
              viewBox="0 0 355 516"
              fill="none"
              xmlns="http://www.w3.org/2000/svg"
            >
              <path
                d="M291.918 13.5211C285.707 19.8494 282.151 28.3134 281.979 37.1788L282.117 41.1649C282.929 49.8915 286.991 57.994 293.499 63.8644C300.007 69.7347 308.484 72.9438 317.248 72.8547C326.011 72.7657 334.421 69.385 340.809 63.3835C347.196 57.3821 351.093 49.1987 351.727 40.4575V36.4541C351.439 29.6432 349.165 23.0654 345.184 17.5316C341.203 11.9978 335.69 7.74997 329.324 5.31181C322.958 2.87365 316.018 2.35177 309.359 3.81052C302.7 5.26927 296.613 8.64487 291.849 13.5211H291.918Z"
                fill="white"
              />
              <path
                d="M289.848 11.3987C283.58 17.7948 279.776 26.2005 279.106 35.1303C278.437 44.0601 280.946 52.9391 286.189 60.1981L281.513 71.0175C281.339 71.4259 281.292 71.8772 281.379 72.3126C281.465 72.748 281.681 73.1473 281.997 73.4584C282.314 73.7695 282.717 73.9779 283.154 74.0565C283.591 74.1352 284.041 74.0804 284.447 73.8992L295.18 69.0503C301.112 73.2079 308.109 75.5815 315.347 75.8909C322.584 76.2003 329.758 74.4327 336.024 70.7966C342.289 67.1605 347.383 61.8079 350.705 55.3705C354.026 48.9331 355.437 41.6797 354.77 34.4666C354.102 27.2536 351.386 20.3819 346.94 14.6629C342.494 8.94393 336.504 4.61634 329.678 2.19102C322.853 -0.234308 315.476 -0.656097 308.418 0.975432C301.36 2.60696 294.916 6.22369 289.848 11.3987V11.3987ZM341.391 13.1243C347.701 19.3456 351.403 27.7375 351.744 36.5922V40.5955C351.119 49.3546 347.217 57.5566 340.815 63.5678C334.414 69.579 325.983 72.9581 317.201 73.0321C308.42 73.1061 299.934 69.8695 293.432 63.9671C286.93 58.0646 282.89 49.9295 282.117 41.1822L281.996 37.1789C282.16 30.3687 284.312 23.7551 288.187 18.1525C292.062 12.5498 297.491 8.20254 303.805 5.64604C310.119 3.08955 317.043 2.43538 323.724 3.7641C330.406 5.09282 336.552 8.3464 341.408 13.1243H341.391Z"
                fill="#455A64"
              />
              <path
                d="M80.2743 465.577L85.1889 462.923L80.1958 461.714L80.2743 465.577Z"
                fill="#263238"
              />
              <path
                d="M130.347 473.035C130.347 473.035 70.1936 448.352 69.597 452.387C69.477 453.194 69.5198 454.016 69.7226 454.805L69.5499 454.601L70.9159 462.044C73.6443 464.116 76.9191 465.344 80.3369 465.577C80.3369 465.216 80.3369 462.986 80.3369 461.714C82.1918 462.401 83.9747 463.269 85.6598 464.305C89.5381 466.692 92.1446 471.01 96.3526 476.003C99.4929 479.63 104.722 481.184 112.51 482.001C120.894 482.88 128.211 481.012 130.174 478.672C131.619 476.819 130.645 473.553 130.347 473.035Z"
                fill="#263238"
              />
              <path
                d="M128.666 471.716C128.07 471.135 125.872 468.874 122.92 466.425C120.102 463.944 117.163 461.607 114.111 459.422C112.568 458.42 111.109 457.297 109.746 456.062C108.678 454.978 107.642 453.863 106.684 452.686C104.037 449.41 101.727 445.875 99.7911 442.134C98.2403 439.359 97.5054 436.202 97.6714 433.027C97.637 424.158 98.1615 415.295 99.2416 406.491L70.7273 406.962C71.7165 411.453 72.2975 419.147 72.9256 424.234C73.8677 432.085 74.1346 433.765 71.3554 441.695C70.5546 444.034 69.2985 446.279 69.2671 448.76C69.2671 452.764 72.4859 456.109 76.0659 457.946C79.0178 459.516 82.3466 460.034 85.2514 461.667C88.197 463.527 90.7866 465.899 92.8981 468.67C94.9864 471.151 96.6822 474.119 99.5556 475.83C102.577 477.458 105.891 478.472 109.306 478.813C113.61 479.421 117.972 479.485 122.292 479.002C128.478 478.342 132.969 475.924 128.666 471.716Z"
                fill="#FFA8A7"
              />
              <path
                d="M125.102 467.461C122.48 465.404 118.743 462.436 114.253 459.123C112.734 458.654 111.132 458.516 109.555 458.719C107.979 458.923 106.464 459.462 105.114 460.301C96.4939 465.278 95.2378 471.92 95.2378 471.92C96.8237 474.826 99.4838 476.996 102.649 477.965C112.965 482.064 131.085 479.975 131.1 475.265C131.1 472.266 128.306 469.973 125.102 467.461ZM71.9208 440.014C71.9208 440.014 71.387 441.585 69.9424 444.725C69.1553 446.123 68.7776 447.714 68.8526 449.316C68.9276 450.918 69.4522 452.467 70.3664 453.785C71.413 455.321 72.7643 456.625 74.3364 457.616C75.9085 458.608 77.6678 459.265 79.5047 459.547C81.9699 450.472 75.5165 441.804 71.9208 440.014Z"
                fill="#37474F"
              />
              <path
                d="M25.9778 450.692C27.6422 453.392 25.4753 463.536 25.8522 470.774C26.2133 477.337 27.9562 488.8 25.9464 495.284C23.544 502.978 18.6922 511.897 9.64806 504.705C4.04256 500.246 0.823713 494.468 0.0700331 485.015C-0.463824 478.436 2.15837 469.314 4.40371 461.29C7.04159 451.869 8.04648 446.829 8.04648 446.829L25.9778 450.692Z"
                fill="#263238"
              />
              <path
                d="M7.41835 402.236C6.77459 417.561 8.54886 428.317 8.65878 438.13C8.61593 442.582 8.14799 447.02 7.26133 451.382C5.97379 457.663 3.79125 466.346 2.86486 470.413C1.57732 476.081 0.603813 479.645 2.56652 486.005C2.73547 486.505 2.951 486.989 3.2103 487.449C5.94239 492.694 12.8982 496.65 15.1279 496.007C15.582 496.588 16.193 497.026 16.8886 497.271C17.5842 497.516 18.3353 497.557 19.0533 497.388L19.7913 497.2C20.046 497.124 20.2931 497.024 20.5292 496.902C21.4472 496.399 22.2506 495.711 22.8885 494.881C23.5264 494.051 23.9849 493.098 24.2348 492.081C24.385 491.629 24.5057 491.167 24.596 490.699C26.1661 482.849 25.0356 477.698 24.8943 474.605C24.7216 471.057 24.8943 466.519 25.2397 460.756C25.5852 454.994 26.9198 436.953 28.9139 428.332C30.4056 422.303 32.2427 414.751 34.1897 406.696L7.41835 402.236Z"
                fill="#FFA8A7"
              />
              <path
                d="M1.51437 477.793C6.99425 475.375 22.9 475.029 25.4437 482.77C25.4437 490.071 25.5536 495.002 20.953 501.361C14.8294 509.793 6.82153 500.843 3.77541 495.174C0.729286 489.506 0.760686 481.718 1.51437 477.793Z"
                fill="#37474F"
              />
              <path
                d="M28.1602 202.071C20.4036 215.967 14.1543 227.681 12.1445 264.376C9.85205 305.797 10.1975 321.577 9.99337 326.57C9.78925 331.563 6.58611 340.701 3.83832 365.353C1.09053 390.005 3.99532 449.655 3.99532 449.655C3.99532 449.655 5.92664 453.675 15.3476 454.586C24.0307 455.434 29.118 452.387 29.118 452.387C29.118 452.387 42.9198 374.02 46.3898 359.214C49.8599 344.407 59.7362 295.669 59.7362 295.669L65.1219 335.284C65.1219 335.284 62.3741 348.866 64.8707 370.487C67.3673 392.109 71.9835 433.467 71.9835 433.467C75.8516 435.992 80.244 437.603 84.8275 438.177C89.7196 438.782 94.6724 437.714 98.8805 435.147C98.8805 435.147 107.297 349.447 107.469 324.968C107.642 300.489 105.758 239.379 98.3152 203.076L28.1602 202.071Z"
                fill="#455A64"
              />
              <path
                d="M67.8383 248.674L59.7363 295.779L65.1219 335.394L63.0022 295.276L70.1465 256.525C76.066 255.143 89.5537 248.171 93.3221 238.075C84.1524 247.591 67.8383 248.674 67.8383 248.674ZM40.4389 220.945C41.5066 217.004 42.6371 213.094 43.909 209.121C41.7058 212.651 39.8947 216.41 38.5076 220.332C37.0674 224.211 35.8511 228.169 34.8648 232.187C33.8813 236.207 33.1005 240.274 32.5253 244.372C31.9076 248.472 31.6031 252.614 31.6146 256.76C32.6352 252.741 33.593 248.752 34.5351 244.749C35.4772 240.745 36.4036 236.772 37.3928 232.8C38.382 228.827 39.3241 224.87 40.3761 220.913L40.4389 220.945ZM34.5351 217.946C35.8854 215.528 37.2358 213.125 38.4762 210.582C36.3977 212.487 34.5099 214.591 32.8393 216.862C31.1333 219.093 29.5905 221.444 28.223 223.897C26.8596 226.357 25.689 228.918 24.7215 231.559C23.7181 234.201 23.0585 236.961 22.7588 239.771L26.5743 232.391C27.8776 229.973 29.1494 227.555 30.4998 225.169C31.8501 222.782 33.1376 220.317 34.4723 217.914L34.5351 217.946ZM28.4585 375.135C26.0719 387.874 23.8527 400.64 21.801 413.432C24.8471 400.87 27.7363 388.241 30.4684 375.543C33.2161 362.872 35.8226 350.232 38.4134 337.483C41.0042 324.733 42.4958 311.826 43.8462 298.935C45.1965 286.044 46.2328 273.121 47.1121 260.199C45.2436 273.027 43.5321 285.871 41.8207 298.699C40.1092 311.528 38.3035 324.325 35.8383 336.996C33.3732 349.667 30.751 362.37 28.3957 375.104L28.4585 375.135ZM95.9757 311.214C96.1955 316.819 96.4782 322.472 96.3526 328.03C96.227 333.589 95.803 339.257 95.489 344.878L94.3741 361.726C93.7147 372.979 93.1913 384.253 92.804 395.547C94.2171 384.336 95.4262 373.115 96.4311 361.883C97.436 350.625 98.3781 339.414 98.8491 328.062C98.8491 316.646 98.0012 305.42 97.0748 294.146C96.1484 282.872 94.8452 271.677 93.1808 260.497L95.0493 294.287C95.3005 299.924 95.6146 305.545 95.8344 311.182L95.9757 311.214Z"
                fill="#37474F"
              />
              <path
                d="M130.488 156.694C130.488 156.694 130.912 160.352 125.401 167.528C120.298 174.17 122.574 183.229 128.337 184.438C134.1 185.647 140.71 181.298 148.875 177.231C157.354 173.055 172.317 164.513 179.807 159.96C184.392 157.149 189.605 157.039 194.629 155.704C199.645 154.227 204.244 151.592 208.054 148.011C209.564 146.724 210.88 145.228 211.964 143.567C212.946 142.089 213.49 140.363 213.534 138.59C213.445 138.019 213.508 137.435 213.718 136.898C213.927 136.36 214.276 135.887 214.728 135.528C215.677 134.492 216.194 133.133 216.172 131.728C215.925 130.038 215.81 128.332 215.827 126.625C215.999 125.384 215.575 123.375 213.833 123.61C213.444 123.695 213.076 123.855 212.749 124.081C209.201 126.232 205.966 128.792 202.449 131.068C200.846 132.309 199.04 133.26 197.11 133.879C194.52 134.272 197.205 131.006 197.77 130.111C198.388 129.269 198.914 128.364 199.34 127.41C199.933 125.772 200.084 124.006 199.78 122.291C199.76 122.084 199.689 121.885 199.575 121.71C199.423 121.527 199.215 121.398 198.983 121.341C198.752 121.285 198.508 121.304 198.288 121.396C197.857 121.591 197.476 121.881 197.173 122.244C195.603 123.814 194.033 125.557 192.306 127.049C190.578 128.54 188.349 130.079 186.48 131.759C183.78 134.146 181.534 137.004 178.865 139.406C176.196 141.808 172.836 143.033 169.35 144.54C159.442 148.733 140.71 153.6 130.488 156.694Z"
                fill="#FFA8A7"
              />
              <path
                d="M76.49 123.469C84.6863 124.552 91.9561 126.955 103.183 135.653C120.141 148.858 130.41 156.066 130.41 156.066L155.689 148.921C154.59 158.091 157.259 166.193 163.744 170.04C156.373 174.59 148.715 178.66 140.82 182.225C127.191 188.662 124.176 187.61 114.535 181.345C104.565 174.845 77.6362 158.798 77.6362 158.798L76.49 123.469Z"
                fill="#2A62F2"
              />
              <path
                opacity="0.15"
                d="M76.49 123.469C84.6863 124.552 91.9561 126.955 103.183 135.653C120.141 148.858 130.41 156.066 130.41 156.066L155.689 148.921C154.59 158.091 157.259 166.193 163.744 170.04C156.373 174.59 148.715 178.66 140.82 182.225C127.191 188.662 124.176 187.61 114.535 181.345C104.565 174.845 77.6362 158.798 77.6362 158.798L76.49 123.469Z"
                fill="black"
              />
              <path
                opacity="0.1"
                d="M130.363 156.144C122.182 159.363 119.152 163.995 119.152 163.995C119.152 163.995 119.387 157.808 127.238 153.961L130.363 156.144Z"
                fill="black"
              />
              <path
                d="M32.7924 66.2677C27.3596 71.8104 26.7944 80.6504 28.9141 87.9988C30.1399 91.4369 31.8022 94.7034 33.8601 97.7181C37.0185 102.961 40.7012 107.869 44.8513 112.368C46.3736 114.183 48.3927 115.515 50.6609 116.199C54.5332 117.279 58.5155 117.916 62.5314 118.099C64.1015 118.099 65.8287 118.633 66.9593 117.392C67.8797 116.049 68.5304 114.54 68.8749 112.949C70.6152 107.801 73.0788 102.926 76.1918 98.4718C78.7983 94.7348 82.2684 89.5375 86.3822 87.4806C88.078 86.6484 89.9936 85.5493 90.2919 83.6808C90.159 84.7188 90.3754 85.7714 90.9071 86.6727C91.4387 87.574 92.2554 88.2726 93.2281 88.6582C92.7108 88.1715 92.3864 87.5146 92.3143 86.808C92.2422 86.1014 92.4273 85.3925 92.8356 84.8113C93.5422 83.5709 94.6727 82.6131 95.3322 81.3727C95.7699 80.5346 95.9867 79.5988 95.962 78.6537C95.9373 77.7085 95.6718 76.7853 95.1908 75.9713C95.5649 76.1683 95.8953 76.4387 96.1623 76.7665C96.4293 77.0942 96.6274 77.4725 96.7447 77.8786C96.862 78.2847 96.8961 78.7104 96.8449 79.13C96.7938 79.5496 96.6584 79.9546 96.447 80.3207C97.2435 79.8737 97.9082 79.2247 98.374 78.4391C98.8399 77.6535 99.0905 76.759 99.1006 75.8457C99.1006 71.512 94.6256 70.146 92.71 66.8486C92.0396 65.2395 91.5141 63.5738 91.1398 61.8712C90.694 60.5637 90.1696 59.2843 89.5696 58.04C88.2983 55.5325 86.5363 53.306 84.3881 51.4924C76.1447 44.5366 64.1643 44.9762 54.3822 47.8967C49.5376 49.1758 45.1242 51.7295 41.6011 55.2922C39.384 57.3295 37.812 59.9714 37.079 62.8918C35.4693 63.7662 34.0198 64.9077 32.7924 66.2677V66.2677Z"
                fill="#263238"
              />
              <path
                d="M19.3675 220.505C16.5412 217.004 20.7179 217.365 22.3352 194.597C22.7591 188.725 17.8445 172.898 17.8445 172.898C17.8445 172.898 22.8847 162.99 19.4146 134.664L43.1399 122.825L69.7542 121.647L80.5098 125.604C84.0741 128.745 90.606 133.848 95.7876 141.494C103.246 152.486 104.376 164.544 96.3214 173.322C96.1958 175.065 97.3263 201.695 99.4617 208.195C101.487 214.24 101.032 218.417 97.8916 221.102C85.8327 234.809 48.3528 238.75 19.3675 220.505Z"
                fill="#FAFAFA"
              />
              <path
                d="M39.9681 104.69C38.5668 104.884 37.1392 104.723 35.8166 104.221C34.494 103.719 33.319 102.892 32.3999 101.816C28.4273 97.4355 28.0505 92.9762 29.9033 90.0086C31.4735 87.5592 35.1791 86.0047 37.7541 87.6534C40.3292 89.302 40.659 90.7937 41.7267 92.8506C42.7944 94.9075 45.5265 93.2746 44.6001 85.2667C50.08 82.6916 49.185 73.5219 52.1369 69.7849C56.8474 63.9282 64.3842 65.4355 66.865 66.8173C68.3632 65.7555 70.1265 65.1302 71.9589 65.011C73.7913 64.8918 75.6208 65.2834 77.2439 66.1421C80.9337 68.1048 83.3832 72.25 84.6864 86.5543C86.0211 101.063 83.5088 110.735 80.1644 113.828C77.8562 115.932 73.5696 117.377 68.4666 117.078V122.558C68.4666 122.558 83.2262 137.93 64.4156 136.548C60.2073 136.176 56.1278 134.905 52.4522 132.822C48.7767 130.739 45.5904 127.893 43.1084 124.474L42.9828 102.491C42.9828 102.491 42.7159 104.219 39.9681 104.69Z"
                fill="#F3B9B8"
              />
              <path
                d="M70.8374 102.099C70.5875 103.149 69.9424 104.062 69.0364 104.648C68.1303 105.234 67.0331 105.448 65.9731 105.246C64.9131 105.044 63.9719 104.441 63.3455 103.562C62.719 102.683 62.4554 101.597 62.6097 100.529L70.8374 102.099Z"
                fill="#B16668"
              />
              <path
                d="M62.5786 101.832C62.6879 102.701 63.0684 103.513 63.6661 104.153C64.2637 104.793 65.0481 105.228 65.9074 105.396C66.3949 105.49 66.8959 105.49 67.3833 105.396C67.2127 104.289 66.6125 103.294 65.7131 102.627C64.8136 101.96 63.6874 101.674 62.5786 101.832V101.832Z"
                fill="#FCAAAA"
              />
              <path
                d="M63.7873 87.7633C63.6988 88.0706 63.5506 88.3575 63.3511 88.6075C63.1517 88.8575 62.9049 89.0657 62.6249 89.2203C62.3449 89.3749 62.0373 89.4728 61.7194 89.5084C61.4016 89.5439 61.0798 89.5165 60.7726 89.4277C60.29 89.3011 59.8564 89.0327 59.5277 88.6573C59.1991 88.2819 58.9905 87.8166 58.9288 87.3214C58.8671 86.8263 58.9552 86.3241 59.1817 85.8795C59.4083 85.4349 59.7628 85.0684 60.1996 84.8273C60.6364 84.5861 61.1355 84.4814 61.6324 84.5266C62.1293 84.5718 62.6012 84.7648 62.9873 85.0808C63.3735 85.3968 63.6561 85.8212 63.7987 86.2994C63.9413 86.7775 63.9373 87.2874 63.7873 87.7633Z"
                fill="#263238"
              />
              <path
                d="M81.7031 78.4679L76.6628 75.7672C76.8209 75.4292 77.0465 75.1272 77.3258 74.8798C77.6051 74.6324 77.9321 74.4447 78.2866 74.3285C78.6412 74.2123 79.0157 74.1699 79.3873 74.204C79.7588 74.2381 80.1195 74.348 80.4469 74.5268C81.1223 74.8968 81.6294 75.5124 81.8632 76.2461C82.097 76.9798 82.0397 77.7753 81.7031 78.4679Z"
                fill="#263238"
              />
              <path
                d="M77.6521 87.1195C77.7456 87.4352 77.9029 87.7283 78.1143 87.9807C78.3258 88.233 78.5869 88.4393 78.8814 88.5865C79.1758 88.7337 79.4974 88.8189 79.8262 88.8366C80.1549 88.8544 80.4838 88.8044 80.7925 88.6897C81.2577 88.5342 81.6664 88.2444 81.967 87.8567C82.2675 87.469 82.4463 87.001 82.4809 86.5117C82.5155 86.0224 82.4043 85.5338 82.1613 85.1077C81.9183 84.6816 81.5544 84.3371 81.1157 84.1177C80.677 83.8984 80.1831 83.814 79.6964 83.8753C79.2097 83.9365 78.7521 84.1407 78.3815 84.4619C78.0108 84.7832 77.7437 85.2071 77.6138 85.6801C77.484 86.1532 77.4974 86.6541 77.6521 87.1195V87.1195Z"
                fill="#263238"
              />
              <path
                d="M60.5374 76.3639L55.1517 79.2844C54.946 78.9421 54.8115 78.5617 54.7563 78.1662C54.7011 77.7706 54.7263 77.368 54.8303 76.9824C54.9344 76.5968 55.1153 76.2362 55.3621 75.9222C55.6089 75.6081 55.9165 75.3472 56.2666 75.1549C56.9976 74.7697 57.8487 74.6804 58.6437 74.9055C59.4387 75.1306 60.1168 75.6527 60.5374 76.3639V76.3639Z"
                fill="#263238"
              />
              <path
                d="M87.9521 79.8025H86.8844C83.31 79.4781 79.7064 79.7541 76.223 80.619C72.8942 81.7652 71.7637 82.9429 69.9423 83.0371C68.1209 83.1313 66.5822 82.0636 62.8766 81.2157C59.0804 80.6803 55.224 80.7386 51.4458 81.3884L50.3152 81.5768C49.9309 81.7026 49.6042 81.9616 49.394 82.3071C49.1838 82.6526 49.104 83.0619 49.169 83.461C49.3639 84.2621 49.7898 84.9882 50.3938 85.5493C50.5938 85.8008 50.7431 86.0888 50.8334 86.3972C51.2699 88.3897 51.8686 90.3433 52.6234 92.2382C53.0261 93.0081 53.5571 93.7037 54.1936 94.2952C54.4379 94.5112 54.7006 94.7055 54.9786 94.8761L55.4183 95.1431C55.8435 95.3666 56.2908 95.5455 56.7529 95.6769H56.9728H57.3182H57.6793C58.0528 95.7446 58.4306 95.7866 58.8098 95.8025H59.909C64.6195 95.5984 66.4094 93.3531 67.4144 91.092C68.4193 88.831 67.9168 85.6592 70.0836 85.565H70.2878H70.4919C72.0621 85.8477 72.0621 88.7054 73.2397 90.7937C73.653 91.6931 74.2158 92.516 74.9041 93.2274L75.2809 93.5729L75.485 93.7299L75.7048 93.8712C75.7669 93.9221 75.8356 93.9643 75.909 93.9968L76.1131 94.1224L76.2858 94.2166H76.3957C77.0019 94.5175 77.6464 94.7341 78.3113 94.8604H78.484C79.2405 94.9932 80.0101 95.0353 80.7765 94.986C82.1575 95.0285 83.5152 94.6233 84.6471 93.831C85.7789 93.0387 86.6243 91.9017 87.0572 90.5896C87.5384 88.6307 87.8536 86.6348 87.9992 84.6229C88.0497 84.3373 88.1681 84.068 88.3447 83.8378C88.8583 83.2044 89.1555 82.4229 89.1926 81.6082C89.2046 81.2145 89.0909 80.8271 88.8678 80.5024C88.6448 80.1777 88.324 79.9325 87.9521 79.8025V79.8025ZM65.9698 89.2235C65.8005 90.3815 65.3111 91.4692 64.5567 92.3638C63.9123 93.0299 63.1343 93.552 62.2736 93.8957C61.413 94.2394 60.4894 94.3969 59.5635 94.358C58.619 94.4466 57.667 94.3075 56.7873 93.9523C55.9076 93.5971 55.1258 93.0363 54.5076 92.3167L54.3349 92.0969L54.1779 91.8771L54.0365 91.673L53.9266 91.5003C53.8973 91.4495 53.8711 91.3971 53.8481 91.3432V91.2176L53.7382 90.9978C53.6283 90.778 53.5341 90.5582 53.4399 90.354L53.2986 89.9615C53.2986 89.7417 53.1415 89.5218 53.0944 89.3334V89.2235V89.0979C52.6391 87.5277 51.9953 84.513 52.7647 83.775C53.5341 83.0371 55.591 82.2049 59.0454 82.409H59.4222C59.9561 82.409 60.4899 82.5189 60.9924 82.6131L61.6204 82.723C62.1857 82.8486 62.7195 82.99 63.1906 83.147L63.6774 83.3197L64.2112 83.5395H64.3211L64.5096 83.6337C64.9288 83.8048 65.3044 84.0677 65.6087 84.4031C66.3938 85.3766 66.2681 87.4021 66.0326 89.145L65.9698 89.2235ZM86.2721 87.6533C86.2226 88.6859 85.9275 89.6918 85.4114 90.5875C84.8953 91.4832 84.173 92.2429 83.3045 92.8035C82.5109 93.2129 81.6373 93.4434 80.7451 93.4787C79.745 93.6119 78.7275 93.4887 77.7882 93.1207C76.8488 92.7526 76.0185 92.1518 75.3751 91.3746V91.3746L75.2809 91.2333L75.1553 91.0763L74.9983 90.8251C74.94 90.7343 74.8875 90.6399 74.8413 90.5425L74.7627 90.4011V90.2912C74.7627 90.2912 74.7627 90.2912 74.7627 90.197C74.5972 89.8244 74.4556 89.4415 74.3388 89.0508C73.7586 87.545 73.687 85.8907 74.1347 84.3403C74.7313 83.3511 77.275 82.1892 79.6931 81.7809C80.2583 81.6867 80.7922 81.6239 81.2632 81.5925H82.6921H83.1317C83.4004 81.6067 83.6679 81.6382 83.9325 81.6867H84.1366H84.2623H84.4664H84.7019L85.0944 81.8123C85.419 81.9209 85.7219 82.0857 85.9894 82.2991C86.7902 82.9115 86.5704 86.0047 86.3349 87.5748L86.2721 87.6533Z"
                fill="#37474F"
              />
              <path
                d="M77.2595 94.7976L69.2988 98.2363L68.0583 88.674C68.341 87.1038 68.6079 85.8163 69.9112 85.6906L77.2595 94.7976Z"
                fill="#FCAAAA"
              />
              <path
                d="M50.0958 81.7652L37.8171 87.6534C38.5042 88.1081 39.141 88.6344 39.717 89.2235L50.4099 84.356L50.0958 81.7652Z"
                fill="#37474F"
              />
              <path
                d="M68.5294 117.015C61.181 116.749 51.2575 114.126 48.6667 109.384C50.1427 114.503 55.3243 117.235 59.4538 118.319C62.4002 119.156 65.4262 119.682 68.4823 119.889L68.5294 117.015Z"
                fill="#FCAAAA"
              />
              <path
                d="M69.801 121.647L80.5567 124.631C90.5272 132.482 102.288 146.173 102.727 156.819C103.054 162.829 102.408 168.853 100.812 174.656C100.812 174.656 99.6813 196.639 101.911 208.148C104.141 219.657 109.369 247.402 109.369 247.402C105.367 251.215 100.486 253.982 95.1592 255.457C92.8825 240.76 87.591 185.302 88.2191 172.427C88.8471 159.551 89.3339 138.307 69.801 121.647Z"
                fill="#2A62F2"
              />
              <path
                opacity="0.3"
                d="M69.801 121.647L80.5567 124.631C90.5272 132.482 102.288 146.173 102.727 156.819C103.054 162.829 102.408 168.853 100.812 174.656C100.812 174.656 99.6813 196.639 101.911 208.148C104.141 219.657 109.369 247.402 109.369 247.402C105.367 251.215 100.486 253.982 95.1592 255.457C92.8825 240.76 87.591 185.302 88.2191 172.427C88.8471 159.551 89.3339 138.307 69.801 121.647Z"
                fill="black"
              />
              <path
                opacity="0.2"
                d="M90.4176 179.367C91.3283 175.96 92.3175 172.568 93.3224 169.208C94.3273 165.848 95.2851 162.44 96.2115 159.065C96.6708 157.392 97.0273 155.693 97.2792 153.977C97.5775 152.407 96.447 150.994 95.3479 149.706C92.9491 147.185 90.2794 144.937 87.3871 143.002L87.1202 142.813V142.499C87.466 140.655 87.4978 138.765 87.2144 136.909C86.9584 135.039 86.3397 133.236 85.393 131.602C84.3448 130.015 83.0332 128.618 81.5147 127.473C79.9909 126.288 78.3431 125.272 76.6001 124.442C78.4152 125.137 80.1393 126.049 81.7345 127.159C83.3795 128.246 84.8023 129.637 85.9269 131.257C86.991 132.937 87.7164 134.809 88.0623 136.768C88.4154 138.736 88.4154 140.751 88.0623 142.719L87.8582 142.217C90.8569 144.147 93.6138 146.43 96.0702 149.015C96.6796 149.694 97.2066 150.443 97.6403 151.245C97.7585 151.456 97.8583 151.677 97.9387 151.905C98.0396 152.135 98.1083 152.378 98.1428 152.627C98.2132 153.111 98.2132 153.603 98.1428 154.087C97.8782 155.85 97.4899 157.592 96.9809 159.3C96.0545 162.707 94.8925 166.052 93.8405 169.381C92.7885 172.709 91.5795 176.038 90.4176 179.367Z"
                fill="black"
              />
              <path
                d="M43.1869 122.825C43.1869 122.825 46.3272 129.42 51.9641 142.955C57.601 156.489 62.9553 168.815 62.5941 181.235C62.233 193.655 56.0779 258.173 56.0779 258.173C56.0779 258.173 33.4832 258.173 23.7168 255.033L25.2869 229.738L19.2889 253.636C16.1667 252.571 13.2508 250.978 10.6687 248.925C12.6785 221.62 21.9111 209.671 20.1839 193.687C18.6137 178.959 9.00433 165.769 17.8601 131.649L43.1869 122.825Z"
                fill="#2A62F2"
              />
              <path
                opacity="0.3"
                d="M43.1869 122.825C43.1869 122.825 46.3272 129.42 51.9641 142.955C57.601 156.489 62.9553 168.815 62.5941 181.235C62.233 193.655 56.0779 258.173 56.0779 258.173C56.0779 258.173 33.4832 258.173 23.7168 255.033L25.2869 229.738L19.2889 253.636C16.1667 252.571 13.2508 250.978 10.6687 248.925C12.6785 221.62 21.9111 209.671 20.1839 193.687C18.6137 178.959 9.00433 165.769 17.8601 131.649L43.1869 122.825Z"
                fill="black"
              />
              <path
                opacity="0.2"
                d="M60.1605 184.894C59.1024 181.745 57.5089 178.802 55.45 176.195C53.503 173.51 51.3676 170.982 49.1694 168.486C48.1017 167.229 46.9868 165.989 45.872 164.749L44.2862 162.896C44.0035 162.566 43.7209 162.283 43.4383 161.922C43.3576 161.828 43.2841 161.729 43.2185 161.624C43.141 161.466 43.0728 161.303 43.0143 161.137C42.9841 160.861 42.9841 160.582 43.0143 160.305C43.3396 158.571 43.9667 156.907 44.8671 155.39C45.6788 153.907 46.5644 152.466 47.5207 151.072V151.905L42.4491 146.613L39.9682 143.96L39.3558 143.3L39.0418 142.97C38.7949 142.776 38.612 142.512 38.5168 142.212C38.4217 141.913 38.4186 141.592 38.508 141.29C38.508 140.976 38.5864 140.662 38.6335 140.348C39.104 137.949 39.7335 135.583 40.5178 133.267C41.2871 130.959 42.0879 128.65 42.9515 126.389C42.3234 128.745 41.664 131.1 41.0987 133.424C40.4478 135.749 39.9237 138.108 39.5285 140.489C39.4367 141.009 39.4367 141.54 39.5285 142.06C39.45 141.934 39.5286 142.06 39.7013 142.217L40.0153 142.531L40.6748 143.174L43.2341 145.781L48.3529 151.01L48.714 151.371L48.4157 151.826C47.5207 153.192 46.6728 154.621 45.9034 156.066C45.0879 157.41 44.499 158.879 44.1605 160.415C44.1517 160.551 44.1517 160.687 44.1605 160.823C44.1673 160.854 44.1673 160.886 44.1605 160.917C44.1605 160.917 44.2705 161.059 44.3176 161.121C44.5552 161.445 44.8121 161.755 45.0869 162.048L46.7356 163.932C47.8347 165.188 48.9182 166.444 49.9859 167.732C52.1185 170.311 54.1154 173 55.9682 175.787C56.8943 177.192 57.7282 178.655 58.4648 180.168C59.2597 181.651 59.8312 183.243 60.1605 184.894Z"
                fill="black"
              />
              <path
                d="M225.436 440.234L227.995 417.64L200.816 419.351C200.816 419.351 201.224 431.567 201.601 438.491C201.836 442.59 196.027 450.189 196.027 450.189C196.027 450.189 208.792 456.674 215.622 454.413C222.452 452.152 226.095 444.065 226.001 442.291C225.907 440.517 225.436 440.234 225.436 440.234Z"
                fill="#FABBBC"
              />
              <path
                d="M165.188 475.375C164.78 475.375 164.121 479.551 166.24 481.373C168.69 483.477 175.944 486.978 185.585 485.958C195.226 484.937 200.517 482.158 204.427 479.127C208.337 476.097 213.848 471.81 218.182 470.962C222.248 470.177 226.676 468.482 227.995 467.304C229.314 466.126 229.204 460.772 229.204 460.772L165.188 475.375Z"
                fill="#263238"
              />
              <path
                d="M225.624 440.14C225.972 440.162 226.303 440.298 226.564 440.529C226.826 440.759 227.003 441.07 227.069 441.412C227.336 442.888 227.587 447.174 228.199 449.608C229.123 453.877 229.372 458.264 228.937 462.609C228.356 465.341 221.73 467.131 217.491 468.607C212.513 470.587 207.861 473.302 203.689 476.662C199.104 480.164 189.557 483.728 183.277 483.571C175.834 483.398 167.575 480.933 165.644 477.589C163.336 473.459 161.687 468.67 172.772 463.944C174.876 463.065 182.272 459.013 184.8 457.553C191.614 453.581 196.419 449.922 199.654 442.747C199.906 441.858 200.462 441.086 201.224 440.564C201.904 440.299 202.648 440.244 203.359 440.407C205.196 440.69 212.498 441.789 214.162 442.59C215.826 443.39 217.726 444.16 217.663 445.934C217.613 446.567 217.459 447.188 217.208 447.771C217.082 448.148 216.957 448.635 217.302 448.87C217.648 449.106 218.04 448.87 218.339 448.603C219.433 447.561 220.441 446.432 221.353 445.227C221.878 444.606 222.474 444.047 223.128 443.563C223.781 443.216 224.416 442.833 225.028 442.417C225.734 441.804 225.577 440.988 225.624 440.14Z"
                fill="#455A64"
              />
              <path
                d="M203.689 476.662C205.641 475.157 207.67 473.752 209.766 472.454V472.454C209.766 472.454 196.686 479.803 191.505 476.27C188.176 473.993 189.809 471.339 189.934 470.476C190.06 469.612 178.205 463.347 174.939 462.908C174.013 463.379 173.243 463.755 172.757 463.96C161.671 468.67 163.336 473.475 165.628 477.604C167.497 480.949 173.479 483.634 183.12 483.806C189.385 483.901 199.104 480.164 203.689 476.662Z"
                fill="#37474F"
              />
              <path
                d="M190.861 467.979C183.968 470.491 186.872 471.763 188.788 472.062C190.704 472.36 202.339 466.095 209.451 460.866C216.878 455.418 221.605 449.404 224.352 447.41C225.389 446.656 226.488 445.746 227.493 444.882C227.336 443.422 227.21 442.103 227.084 441.412C227.019 441.07 226.841 440.759 226.58 440.529C226.318 440.298 225.988 440.162 225.64 440.14C225.64 440.988 225.75 441.789 225.059 442.417C224.447 442.833 223.813 443.216 223.159 443.563C222.505 444.047 221.91 444.606 221.385 445.227C220.472 446.432 219.464 447.561 218.37 448.603C212.293 455.795 197.754 465.467 190.861 467.979Z"
                fill="#37474F"
              />
              <path
                d="M189.29 471.104C189.443 471.103 189.592 471.053 189.714 470.963C189.784 470.912 189.842 470.847 189.885 470.773C189.929 470.699 189.957 470.616 189.967 470.531C189.977 470.446 189.97 470.359 189.945 470.277C189.921 470.194 189.88 470.118 189.824 470.052C187.924 467.744 178.833 462.201 173.793 462.625C173.706 462.631 173.622 462.654 173.544 462.693C173.466 462.731 173.397 462.785 173.34 462.851C173.283 462.917 173.24 462.993 173.212 463.075C173.185 463.158 173.174 463.245 173.181 463.331C173.188 463.42 173.214 463.505 173.255 463.584C173.297 463.662 173.354 463.731 173.423 463.786C173.492 463.842 173.571 463.883 173.656 463.908C173.741 463.932 173.831 463.939 173.918 463.928C178.629 463.52 187.265 469.031 188.757 470.853C188.823 470.93 188.905 470.992 188.997 471.035C189.089 471.078 189.189 471.102 189.29 471.104V471.104Z"
                fill="#263238"
              />
              <path
                d="M195.32 467.681C195.473 467.68 195.621 467.63 195.744 467.54C195.813 467.489 195.871 467.424 195.915 467.35C195.958 467.276 195.986 467.193 195.996 467.108C196.007 467.023 195.999 466.936 195.975 466.854C195.95 466.771 195.909 466.695 195.854 466.629C193.954 464.321 184.863 458.778 179.822 459.202C179.738 459.21 179.656 459.235 179.581 459.275C179.506 459.315 179.439 459.369 179.385 459.435C179.332 459.501 179.291 459.576 179.266 459.657C179.242 459.739 179.233 459.824 179.241 459.909C179.25 459.993 179.274 460.075 179.314 460.15C179.354 460.225 179.409 460.291 179.474 460.345C179.54 460.399 179.615 460.44 179.697 460.464C179.778 460.489 179.863 460.498 179.948 460.489C184.658 460.097 193.294 465.593 194.802 467.43C194.866 467.505 194.945 467.566 195.035 467.609C195.124 467.652 195.221 467.677 195.32 467.681V467.681Z"
                fill="#263238"
              />
              <path
                d="M201.302 464.431C201.456 464.44 201.608 464.39 201.726 464.289C201.795 464.238 201.854 464.174 201.897 464.1C201.941 464.025 201.968 463.943 201.979 463.858C201.989 463.772 201.982 463.686 201.957 463.603C201.933 463.521 201.891 463.444 201.836 463.379C199.936 461.07 190.845 455.528 185.82 455.952C185.733 455.956 185.647 455.977 185.568 456.015C185.49 456.053 185.419 456.107 185.362 456.173C185.305 456.239 185.262 456.316 185.235 456.4C185.209 456.483 185.199 456.571 185.208 456.658C185.216 456.746 185.241 456.832 185.283 456.91C185.324 456.989 185.381 457.058 185.45 457.113C185.519 457.169 185.599 457.21 185.684 457.235C185.769 457.259 185.858 457.266 185.946 457.255C190.656 456.847 199.277 462.358 200.784 464.179C200.843 464.261 200.921 464.326 201.012 464.37C201.102 464.413 201.202 464.434 201.302 464.431V464.431Z"
                fill="#263238"
              />
              <path
                d="M206.955 460.646C207.107 460.645 207.256 460.596 207.379 460.505C207.448 460.454 207.506 460.39 207.55 460.316C207.593 460.241 207.621 460.159 207.631 460.074C207.641 459.988 207.634 459.902 207.61 459.819C207.585 459.737 207.544 459.66 207.489 459.594C205.589 457.286 196.497 451.744 191.457 452.168C191.371 452.174 191.286 452.197 191.208 452.235C191.13 452.274 191.061 452.328 191.004 452.394C190.947 452.459 190.904 452.536 190.877 452.618C190.849 452.7 190.838 452.787 190.845 452.874C190.868 453.049 190.958 453.208 191.095 453.319C191.232 453.43 191.407 453.484 191.583 453.471C196.293 453.063 204.929 458.574 206.421 460.395C206.487 460.472 206.569 460.535 206.661 460.578C206.753 460.621 206.853 460.645 206.955 460.646Z"
                fill="#263238"
              />
              <path
                d="M212.435 456.972C212.587 456.985 212.738 456.94 212.859 456.847C212.928 456.796 212.986 456.731 213.029 456.658C213.073 456.584 213.101 456.503 213.113 456.418C213.125 456.333 213.119 456.247 213.097 456.164C213.075 456.081 213.037 456.004 212.985 455.936C210.378 452.654 200.847 447.975 195.807 448.431C195.72 448.434 195.634 448.456 195.555 448.494C195.476 448.532 195.406 448.586 195.349 448.652C195.291 448.718 195.248 448.795 195.222 448.879C195.195 448.962 195.186 449.05 195.195 449.137C195.204 449.224 195.231 449.308 195.274 449.384C195.316 449.461 195.373 449.528 195.442 449.582C195.511 449.636 195.589 449.676 195.674 449.699C195.758 449.723 195.846 449.729 195.933 449.718C200.47 449.326 209.593 453.816 211.901 456.721C211.965 456.801 212.047 456.865 212.139 456.908C212.232 456.952 212.333 456.974 212.435 456.972V456.972Z"
                fill="#263238"
              />
              <path
                d="M271.206 451.225L266.276 429.965L291.603 426.998L292.042 447.41C292.042 447.41 294.46 454.79 292.843 457.396C291.226 460.003 274.362 462.358 272.855 460.537C271.348 458.715 271.206 451.225 271.206 451.225Z"
                fill="#FABBBC"
              />
              <path
                d="M272.211 497.216C272.807 503.763 274.048 508.018 276.733 511.63C279.418 515.241 284.285 515.979 289.168 514.362C294.052 512.745 300.27 509.086 301.526 503.276C302.661 498.087 302.521 492.699 301.117 487.575L272.211 497.216Z"
                fill="#263238"
              />
              <path
                d="M292.042 447.426C294.068 447.426 293.361 456.313 294.759 465.043C296.329 474.464 299.469 478.044 300.819 485.706C302.39 494.484 301.919 498.503 298.637 504.219C295.355 509.934 283.359 516.419 277.173 509.306C272.117 503.512 271.74 496.572 271.944 487.638C272.31 480.093 272.258 472.534 271.787 464.996C271.222 458.37 269.463 452.435 271.206 451.54C271.363 452.497 271.536 453.722 271.709 454.68C271.881 455.638 272.132 458.998 273.279 458.919C273.373 458.084 273.373 457.242 273.279 456.407C273.152 455.637 273.333 454.848 273.781 454.209C274.769 453.477 275.888 452.944 277.079 452.639C279.057 452.089 282.605 451.414 284.615 451.068C285.62 450.88 286.641 450.739 287.646 450.645C288.504 450.55 289.372 450.581 290.221 450.739C290.456 450.775 290.681 450.865 290.877 451.001C291.073 451.137 291.235 451.316 291.351 451.524C291.449 451.849 291.491 452.189 291.477 452.529C291.497 453.141 291.597 453.748 291.775 454.334C291.854 454.586 292.074 454.884 292.356 454.79C292.639 454.696 292.67 454.444 292.67 454.224C292.67 453.157 292.482 452.387 292.388 451.084C292.388 450.503 292.231 449.734 292.199 449.153C292.168 448.572 292.089 447.991 292.042 447.426Z"
                fill="#455A64"
              />
              <path
                d="M300.223 483.225C300.458 484.482 301.887 492.866 299.375 494.641C296.863 496.415 294.978 490.056 294.978 490.056C294.978 490.056 288.462 488.894 279.151 493.557C279.685 494.892 278.35 499.587 275.744 498.88C273.137 498.173 271.881 488.533 271.866 488.407C271.693 496.964 272.211 503.669 277.11 509.306C283.296 516.419 295.292 509.934 298.574 504.219C301.856 498.503 302.264 494.484 300.757 485.706C300.662 484.827 300.49 484.011 300.223 483.225Z"
                fill="#37474F"
              />
              <path
                d="M294.319 490.699C294.445 493.84 297.915 492.474 297.93 487.92C297.946 483.367 294.947 472.862 294.79 465.043C294.429 454.319 294.099 447.379 292.074 447.426C292.066 447.535 292.066 447.646 292.074 447.755L292.466 452.23C292.466 452.874 292.608 453.455 292.623 454.146C292.859 460.694 292.623 473.412 293.44 479.347C293.961 483.11 294.255 486.901 294.319 490.699V490.699Z"
                fill="#37474F"
              />
              <path
                d="M280.313 493.369C279.344 489.723 278.599 486.021 278.084 482.283C277.22 476.395 274.064 464.603 272.509 458.26C272.087 457.101 271.818 455.893 271.709 454.664C271.552 453.785 271.395 452.67 271.238 451.728V451.54C269.997 452.215 270.311 457.302 270.908 459.94C271.504 462.578 272.258 465.42 272.996 469.204C274.943 476.694 274.896 487.842 276.137 492.144C277.377 496.446 281.051 496.462 280.313 493.369Z"
                fill="#37474F"
              />
              <path
                d="M279.026 493.84C279.124 493.823 279.219 493.791 279.308 493.746C284.074 491.201 289.497 490.15 294.869 490.731C295.062 490.754 295.258 490.709 295.421 490.603C295.585 490.496 295.706 490.336 295.764 490.15C295.79 490.062 295.796 489.968 295.781 489.878C295.766 489.787 295.731 489.7 295.678 489.625C295.625 489.549 295.556 489.487 295.476 489.442C295.395 489.397 295.306 489.37 295.214 489.365C289.466 488.722 283.659 489.851 278.57 492.599C278.489 492.629 278.414 492.675 278.35 492.734C278.286 492.792 278.235 492.863 278.198 492.942C278.162 493.021 278.141 493.106 278.138 493.193C278.134 493.279 278.148 493.366 278.178 493.447C278.208 493.529 278.253 493.603 278.312 493.667C278.371 493.731 278.442 493.783 278.52 493.819C278.599 493.856 278.684 493.876 278.771 493.88C278.858 493.883 278.944 493.87 279.026 493.84Z"
                fill="#263238"
              />
              <path
                d="M277.157 487.025C277.244 487.011 277.329 486.985 277.408 486.947C282.803 484.275 288.819 483.109 294.821 483.571C295.017 483.593 295.214 483.546 295.378 483.437C295.542 483.327 295.662 483.164 295.716 482.974C295.735 482.884 295.733 482.79 295.712 482.7C295.691 482.61 295.651 482.526 295.594 482.453C295.537 482.38 295.466 482.32 295.384 482.277C295.302 482.235 295.212 482.21 295.12 482.205C288.759 481.674 282.376 482.908 276.67 485.769C276.501 485.854 276.371 486.001 276.309 486.181C276.248 486.36 276.259 486.556 276.341 486.727C276.424 486.861 276.55 486.962 276.697 487.017C276.845 487.071 277.007 487.074 277.157 487.025V487.025Z"
                fill="#263238"
              />
              <path
                d="M294.162 476.992C294.302 476.97 294.433 476.91 294.541 476.819C294.649 476.728 294.73 476.608 294.774 476.474C294.806 476.388 294.817 476.297 294.809 476.206C294.8 476.115 294.772 476.028 294.725 475.95C294.679 475.871 294.615 475.805 294.539 475.754C294.464 475.703 294.378 475.67 294.287 475.657C285.133 473.757 276.278 478.798 275.901 479.065C275.817 479.104 275.742 479.161 275.681 479.231C275.621 479.301 275.575 479.382 275.547 479.471C275.519 479.559 275.509 479.652 275.519 479.744C275.528 479.837 275.557 479.926 275.602 480.007C275.718 480.16 275.887 480.264 276.076 480.299C276.265 480.334 276.46 480.297 276.623 480.195C276.717 480.195 285.322 475.218 293.895 477.055C293.988 477.055 294.079 477.033 294.162 476.992V476.992Z"
                fill="#263238"
              />
              <path
                d="M293.471 470.805C293.608 470.778 293.737 470.716 293.844 470.625C293.951 470.534 294.033 470.418 294.083 470.287C294.117 470.202 294.132 470.11 294.126 470.019C294.12 469.927 294.093 469.838 294.048 469.758C294.003 469.678 293.94 469.609 293.865 469.557C293.789 469.505 293.703 469.47 293.612 469.455C287.129 468.175 280.401 469.386 274.77 472.847C274.691 472.893 274.622 472.956 274.567 473.03C274.513 473.104 274.474 473.188 274.454 473.278C274.433 473.368 274.431 473.461 274.448 473.551C274.464 473.642 274.499 473.728 274.55 473.804C274.674 473.954 274.849 474.052 275.041 474.078C275.233 474.105 275.428 474.057 275.587 473.946C280.828 470.787 287.049 469.669 293.063 470.805C293.196 470.841 293.337 470.841 293.471 470.805V470.805Z"
                fill="#263238"
              />
              <path
                d="M292.67 463.787C292.807 463.763 292.936 463.705 293.043 463.617C293.15 463.528 293.233 463.414 293.283 463.284C293.314 463.2 293.327 463.11 293.32 463.02C293.314 462.931 293.288 462.843 293.245 462.764C293.202 462.685 293.142 462.617 293.07 462.563C292.998 462.509 292.915 462.471 292.827 462.452C283.406 460.191 274.315 465.797 273.985 466.048C273.902 466.09 273.828 466.149 273.769 466.222C273.71 466.295 273.667 466.379 273.643 466.47C273.619 466.561 273.615 466.655 273.631 466.748C273.647 466.84 273.682 466.928 273.734 467.006C273.852 467.157 274.024 467.257 274.213 467.286C274.403 467.316 274.597 467.271 274.755 467.163C274.849 467.163 283.61 461.683 292.372 463.787C292.471 463.804 292.572 463.804 292.67 463.787V463.787Z"
                fill="#263238"
              />
              <path
                d="M287.803 226.111C296.595 281.647 291.288 352.352 291.288 352.352C293.029 363.256 293.89 374.283 293.863 385.326C293.644 406.146 293.392 435.571 293.392 435.571C293.392 435.571 279.685 446.264 265.93 438.931C265.93 438.931 256.274 400.258 252.191 369.985C248.925 345.789 243.021 309.816 243.021 309.816L233.459 348.16C233.459 348.16 234.48 363.076 234.228 373.549C233.946 385.718 227.32 432.368 227.32 432.368C227.32 432.368 211.948 441.176 200.234 432.054C200.234 432.054 195.712 364.175 195.131 349.557C194.016 320.87 194.723 260.984 197.879 224.666L287.803 226.111Z"
                fill="#37474F"
              />
              <path
                d="M243.021 309.91L236.741 267.642C236.741 267.642 223.206 265.836 216.187 259.414C216.187 259.414 220.788 267.987 233.585 271.143L239.865 310.052L233.585 348.254L243.021 309.91Z"
                fill="#263238"
              />
              <path
                d="M293.816 437.753C290.959 441.569 275.665 445.903 265.852 442.071L264.109 433.954C271.52 436.654 287.661 433.844 293.832 428.929L293.816 437.753Z"
                fill="#263238"
              />
              <path
                d="M227.398 433.702C224.07 437.094 209.389 438.648 200.062 433.483L199.544 425.239C206.609 428.945 221.667 429.243 228.498 425.239L227.398 433.702Z"
                fill="#263238"
              />
              <path
                d="M209.828 122.323C199.418 126.546 196.451 135.983 193.342 161.059C190.233 186.134 189.463 192.792 189.463 192.792C189.463 192.792 169.224 207.975 150.083 213.408L154.354 233.255C154.354 233.255 172.505 228.811 182.335 225.655C198.539 220.442 206.641 216.878 211.665 211.524C216.69 206.17 223.049 153.93 223.049 153.93L209.828 122.323Z"
                fill="#FABBBC"
              />
              <path
                d="M209.923 121.035C202.543 124.003 197.55 129.891 195.791 141.023C194.033 152.156 188.616 192.572 188.616 192.572C178.457 199.669 160.086 209.09 160.086 209.09C162.008 213.276 163.238 217.746 163.728 222.327C164.372 229.424 163.399 232.36 163.399 232.36C163.399 232.36 186.527 226.362 198.649 220.851C210.771 215.339 213.597 212.152 215.057 209.09C216.518 206.028 221.668 174.075 222.767 167.716C223.866 161.357 224.478 152.972 224.478 152.972L209.923 121.035Z"
                fill="#2A62F2"
              />
              <path
                opacity="0.2"
                d="M209.923 121.035C202.543 124.003 197.55 129.891 195.791 141.023C194.033 152.156 188.616 192.572 188.616 192.572C178.457 199.669 160.086 209.09 160.086 209.09C162.008 213.276 163.238 217.746 163.728 222.327C164.372 229.424 163.399 232.36 163.399 232.36C163.399 232.36 186.527 226.362 198.649 220.851C210.771 215.339 213.597 212.152 215.057 209.09C216.518 206.028 221.668 174.075 222.767 167.716C223.866 161.357 224.478 152.972 224.478 152.972L209.923 121.035Z"
                fill="black"
              />
              <path
                d="M151.826 213.549C151.246 213.455 157.181 212.387 150.084 213.408C142.986 214.429 140.914 213.078 136.345 212.984C136.177 212.958 136.006 212.965 135.842 213.005C135.677 213.046 135.523 213.119 135.387 213.22C135.065 213.65 134.771 214.101 134.508 214.57C134.092 215.093 133.647 215.591 133.173 216.062C132.592 216.674 125.181 225.907 125.322 225.969L128.808 227.791C128.808 227.791 140.082 240.226 147.194 235.642C148.765 234.605 150.727 235.139 152.392 234.401C153.911 233.75 155.237 232.717 156.239 231.402C157.495 229.471 157.071 226.943 156.584 224.682L155.297 218.495C154.888 216.564 154.668 214.444 152.502 213.785L151.826 213.549Z"
                fill="#FABBBC"
              />
              <path
                d="M257.671 116.089C263.073 117.11 269.605 118.429 269.605 118.429C283.328 124.27 285.542 125.149 288.447 126.279C289.556 142.168 288.892 158.13 286.468 173.871C285.636 179.398 281.758 189.965 281.868 201.538C282.099 212.162 283.276 222.745 285.385 233.161C285.385 233.161 272.368 247.292 234.245 244.968C204.317 243.194 199.12 232.124 199.12 232.124C199.12 232.124 200.203 192.352 200.69 170.291C201.24 141.337 206.421 126.028 212.796 120.878L231.826 116.78L257.671 116.089Z"
                fill="#F5F5F5"
              />
              <path
                d="M268.474 61.5415C267.257 59.1226 265.179 57.2464 262.649 56.2814C261.408 50.1421 253.385 42.9664 238.233 42.5582C236.458 42.6409 234.684 42.4124 232.988 41.883C231.167 41.1921 229.581 39.9988 227.807 39.198C226.104 38.427 224.259 38.0206 222.39 38.0047C220.868 37.9573 219.356 38.2693 217.977 38.9154C216.583 39.5448 215.467 40.6614 214.837 42.0557C214.379 43.4135 214.223 44.8552 214.382 46.2795C213.128 45.9801 211.811 46.0958 210.629 46.6092C209.081 47.063 207.741 48.0468 206.845 49.3884C206.486 50.054 206.267 50.7862 206.202 51.5397C206.137 52.2932 206.228 53.052 206.468 53.7692C206.958 55.1976 207.788 56.4856 208.886 57.5219C207.82 57.9753 206.959 58.8056 206.466 59.8542C205.974 60.9028 205.885 62.096 206.217 63.2059C206.598 64.3005 207.289 65.2606 208.206 65.9689C209.124 66.6771 210.227 67.1028 211.383 67.1941C211.084 67.1941 211.556 68.9056 211.618 69.0469C211.969 69.6876 212.521 70.1952 213.188 70.4914C214.806 71.1396 216.47 71.6645 218.166 72.0616L225.2 74.2598L242.645 79.7083L257.263 84.2775L257.059 91.9399V102.931C258.783 102.356 260.221 101.142 261.079 99.5395C263.659 94.6603 265.561 89.4516 266.731 84.0577C270.39 69.675 269.966 64.2579 268.474 61.5415Z"
                fill="#263238"
              />
              <path
                d="M267.249 94.9389C261.628 97.8594 258.896 93.3688 258.896 93.3688L258.661 116.058C252.788 124.364 242.064 121.804 233.742 132.183H231.151C228.743 126.842 228.495 120.776 230.46 115.257L230.351 110.091C228.696 110.09 227.043 109.975 225.405 109.746C220.333 109.086 215.984 105.695 214.413 98.9429C212.419 90.7937 212.058 73.0508 214.413 64.9645C215.198 62.358 215.984 59.359 218.402 58.0871C224.384 54.9468 242.849 53.565 247.779 60.8192C247.214 65.2942 248.643 70.2402 252.773 71.5591C253.087 78.6249 254.17 82.0008 256.981 83.0999C259.257 83.9949 260.262 80.4777 261.691 78.8133C262.421 78.1471 263.297 77.6625 264.249 77.3987C265.201 77.135 266.202 77.0996 267.171 77.2954C268.139 77.4912 269.048 77.9128 269.823 78.5257C270.597 79.1387 271.217 79.9258 271.63 80.8231C272.283 82.0346 272.688 83.3642 272.822 84.7341C272.955 86.1041 272.813 87.4867 272.405 88.8013C271.997 90.1158 271.331 91.3357 270.446 92.3896C269.56 93.4435 268.474 94.3102 267.249 94.9389V94.9389Z"
                fill="#FABBBC"
              />
              <path
                d="M230.366 110.091C236.976 109.871 242.833 108.898 246.696 107.139C250.558 105.381 253.871 100.026 254.861 94.7505C254.986 98.9585 253.29 106.495 247.496 109.761C241.703 113.027 234.762 113.373 230.444 113.592L230.366 110.091Z"
                fill="#9A4A4D"
              />
              <path
                d="M237.417 68.4816L242.535 71.7476C242.966 71.0478 243.106 70.207 242.924 69.4056C242.742 68.6042 242.253 67.906 241.562 67.461C241.225 67.2467 240.849 67.1029 240.455 67.0383C240.061 66.9737 239.658 66.9895 239.271 67.0849C238.883 67.1803 238.519 67.3533 238.201 67.5933C237.882 67.8334 237.615 68.1356 237.417 68.4816V68.4816Z"
                fill="#263238"
              />
              <path
                d="M217.915 71.0253L223.536 68.6073C223.396 68.2334 223.182 67.892 222.906 67.6037C222.63 67.3154 222.299 67.0864 221.931 66.9307C221.564 66.7749 221.169 66.6957 220.77 66.6978C220.371 66.6999 219.976 66.7833 219.611 66.9429C218.847 67.2624 218.24 67.8706 217.923 68.6352C217.605 69.3997 217.602 70.2587 217.915 71.0253V71.0253Z"
                fill="#263238"
              />
              <path
                d="M241.326 77.2745C241.323 77.7658 241.174 78.2452 240.898 78.6517C240.622 79.0583 240.232 79.3737 239.776 79.5581C239.321 79.7425 238.821 79.7876 238.34 79.6875C237.859 79.5874 237.418 79.3468 237.074 78.9961C236.73 78.6454 236.498 78.2004 236.407 77.7175C236.316 77.2347 236.371 76.7357 236.564 76.2839C236.757 75.8321 237.08 75.4478 237.491 75.1797C237.903 74.9116 238.385 74.7718 238.876 74.778C239.202 74.78 239.523 74.8463 239.822 74.9731C240.122 75.0999 240.393 75.2846 240.621 75.5166C240.848 75.7487 241.028 76.0234 241.149 76.3251C241.27 76.6268 241.33 76.9495 241.326 77.2745V77.2745Z"
                fill="#263238"
              />
              <path
                d="M222.845 77.0547C222.842 77.546 222.693 78.0253 222.417 78.4319C222.141 78.8384 221.751 79.1539 221.295 79.3383C220.84 79.5227 220.34 79.5677 219.859 79.4677C219.378 79.3676 218.938 79.127 218.594 78.7763C218.249 78.4255 218.017 77.9806 217.926 77.4977C217.835 77.0149 217.89 76.5159 218.083 76.0641C218.276 75.6123 218.599 75.228 219.011 74.9599C219.422 74.6917 219.904 74.5519 220.396 74.5581C220.73 74.5254 221.067 74.5678 221.382 74.6824C221.697 74.797 221.983 74.9807 222.218 75.2202C222.453 75.4597 222.631 75.7488 222.74 76.0663C222.848 76.3837 222.884 76.7215 222.845 77.0547V77.0547Z"
                fill="#263238"
              />
              <path
                d="M231.811 72.0459L230.24 87.8418L221.856 84.9998C224.162 79.9908 227.564 75.5639 231.811 72.0459V72.0459Z"
                fill="#F3A3A6"
              />
              <path
                d="M238.672 89.4276L230.334 92.4424C230.508 93.0018 230.793 93.5204 231.171 93.9675C231.55 94.4146 232.015 94.7809 232.538 95.0446C233.061 95.3083 233.632 95.4641 234.216 95.5026C234.801 95.5411 235.387 95.4615 235.94 95.2687C237.053 94.825 237.955 93.974 238.462 92.8889C238.97 91.8038 239.045 90.5661 238.672 89.4276V89.4276Z"
                fill="#9A4A4D"
              />
              <path
                d="M237.825 90.9664C238.176 90.8936 238.534 90.8516 238.892 90.8408C238.923 91.7925 238.655 92.7301 238.126 93.5215C237.596 94.313 236.832 94.9185 235.94 95.253C235.487 95.4148 235.009 95.4946 234.527 95.4885C234.397 94.4565 234.666 93.4139 235.279 92.5735C235.892 91.7331 236.802 91.1583 237.825 90.9664V90.9664Z"
                fill="#F28F8F"
              />
              <path
                d="M228.089 135.622C228.089 135.622 223.834 128.446 223.693 125.526L228.231 120.376L230.209 132.325L228.089 135.622Z"
                fill="#263238"
              />
              <path
                d="M234.119 132.246L241.97 126.342L248.957 130.566L236.804 137.522L234.119 132.246Z"
                fill="#263238"
              />
              <path
                d="M238.986 205.416C239.897 189.714 234.276 147.21 234.276 141.651L230.115 141.542C227.76 148.372 222.971 192.65 223.379 203.406C223.567 208.572 229.502 217.538 231.308 217.695C233.114 217.852 238.751 208.745 238.986 205.416Z"
                fill="#37474F"
              />
              <path
                d="M229.77 142.531C229.848 142.217 229.958 141.808 230.052 141.557L234.213 141.667C234.213 142.122 234.213 142.719 234.292 143.394C232.731 143.583 231.151 143.281 229.77 142.531V142.531Z"
                fill="#263238"
              />
              <path
                d="M234.119 132.246C232.82 132.099 231.508 132.099 230.209 132.246C229.276 133.182 228.554 134.306 228.089 135.543C228.321 137.668 228.978 139.723 230.021 141.589C230.661 141.956 231.376 142.175 232.113 142.23C232.849 142.284 233.588 142.172 234.276 141.903C235.444 140.632 236.309 139.113 236.804 137.459C236.616 135.44 235.653 133.572 234.119 132.246V132.246Z"
                fill="#37474F"
              />
              <path
                d="M233.443 132.168H234.119C235.531 130.549 237.146 129.119 238.923 127.912C240.054 127.347 244.686 135.434 245.549 137.553C246.413 139.673 246.256 139.642 249.161 137.789C254.193 134.456 258.652 130.33 262.366 125.573C266.982 119.732 267.359 116.011 267.359 116.011C265.711 114.035 264.18 111.964 262.774 109.808C261 106.448 260.701 105.098 258.802 105.381V108.521C258.425 111.41 255.441 112.368 251.328 115.791C247.214 119.214 240.588 122.401 239.002 123.861C236.913 126.465 235.054 129.244 233.443 132.168V132.168Z"
                fill="#E0E0E0"
              />
              <path
                d="M219.909 132.168C220.348 133.361 224.29 124.191 226.189 124.427C227.084 124.521 229.33 129.514 230.9 132.199H231.135C230.367 129.411 229.966 126.534 229.942 123.642C229.922 120.844 230.09 118.048 230.445 115.273L230.335 110.107C229.722 110.107 229.141 110.107 228.639 110.107C228.152 110.578 221.024 118.366 220.364 121.883C219.649 125.263 219.496 128.738 219.909 132.168V132.168Z"
                fill="#E0E0E0"
              />
              <path
                d="M279.481 259.979C288.776 256.619 291.681 253.698 291.681 253.698L285.573 202.778C286.219 190.78 287.651 178.836 289.86 167.025C293.157 151.324 291.116 125.84 291.116 125.84L266.276 114.849C266.888 118.24 264.36 123.265 262.994 126.138C259.865 132.29 257.239 138.686 255.143 145.263C253.134 151.994 251.443 158.798 250.072 165.675C247.35 179.516 245.649 193.539 244.984 207.63C244.294 220.898 244.356 234.213 244.984 247.481C245.189 252.191 245.691 257.341 249.161 260.497C251.548 262.408 254.52 263.44 257.577 263.418C265.04 263.839 272.506 262.667 279.481 259.979V259.979Z"
                fill="#2A62F2"
              />
              <path
                d="M195.76 248.407L204.082 252.866C205.448 253.645 206.997 254.047 208.569 254.031C210.142 254.014 211.682 253.58 213.032 252.772C215.858 251.013 216.172 245.439 216.329 242.111C216.988 229.282 216.722 222.358 217.02 211.367C217.711 185.349 219.689 159.347 221.087 133.392C221.336 127.388 222.284 121.434 223.913 115.649L209.923 121.035C209.923 121.035 199.246 134.209 198.79 161.969L199.34 195.32L195.76 248.407Z"
                fill="#2A62F2"
              />
              <path
                d="M318.814 190.578C320.525 201.946 320.855 203.877 320.242 211.508C319.803 217.208 319.222 218.181 317.259 228.56C315.296 238.939 310.178 257.907 310.303 260.67C310.553 263.28 310.585 265.906 310.397 268.521C310.154 271.648 309.467 274.725 308.356 277.659C307.603 279.7 307.132 281.899 306.252 283.94C305.45 285.278 304.52 286.535 303.473 287.693C302.452 289.074 302.123 290.833 300.851 292.058C298.653 294.225 296.313 294.57 294.209 295.591C293.298 296.957 291.807 299.846 290.786 301.118C288.211 304.399 287.52 299.123 287.646 297.318C287.766 295.394 288.092 293.488 288.619 291.634C289.891 286.983 290.902 282.265 291.65 277.502C291.775 276.654 292.733 273.137 291.336 273.169C291.11 273.201 290.894 273.279 290.699 273.398C290.505 273.517 290.337 273.674 290.205 273.859C289.263 274.959 288.635 276.309 287.818 277.502C287.149 278.418 286.409 279.279 285.605 280.077C284.99 280.826 284.232 281.446 283.375 281.899C282.48 282.291 279.167 282.605 279.01 281.051C278.999 280.801 279.053 280.552 279.167 280.329C279.826 278.758 280.627 277.188 281.287 275.618C281.996 274.021 282.615 272.386 283.139 270.719C284.134 265.768 286.063 261.052 288.823 256.823C294.303 248.972 294.759 203.312 294.759 203.312L286.735 171.909C283.358 163.53 281.755 154.543 282.025 145.514C282.339 134.601 291.446 128.478 291.446 128.478C303.112 132.937 305.875 134.476 309.079 145.09C312.282 155.704 317.667 182.9 318.814 190.578Z"
                fill="#FABBBC"
              />
              <path
                d="M320.415 198.664C320.038 195.948 318.123 181.816 313.601 161.169C309.298 141.541 308.074 138.385 303.976 133.91C300.757 130.393 296.486 128.242 291.116 125.824C291.116 125.824 282.731 131.477 280.753 148.042C279.277 160.336 285.181 175.724 285.181 175.724L293.769 204.489L293.016 236.552C298.527 234.527 310.9 238.358 313.868 243.759C313.868 243.759 317.809 229.455 319.803 219.343C321.157 212.532 321.364 205.543 320.415 198.664V198.664Z"
                fill="#2A62F2"
              />
              <path
                opacity="0.2"
                d="M320.415 198.664C320.038 195.948 318.123 181.816 313.601 161.169C309.298 141.541 308.074 138.385 303.976 133.91C300.757 130.393 296.486 128.242 291.116 125.824C291.116 125.824 282.731 131.477 280.753 148.042C279.277 160.336 285.181 175.724 285.181 175.724L293.769 204.489L293.016 236.552C298.527 234.527 310.9 238.358 313.868 243.759C313.868 243.759 317.809 229.455 319.803 219.343C321.157 212.532 321.364 205.543 320.415 198.664V198.664Z"
                fill="black"
              />
              <path
                d="M293.094 233.176L292.419 242.048C292.419 242.048 296.156 241.467 304.337 243.618C310.806 245.329 312.91 247.936 312.91 247.936L315.108 239.096C315.108 239.096 308.34 232.077 293.094 233.176Z"
                fill="#BA68C8"
              />
              <path
                opacity="0.3"
                d="M293.094 233.176L292.419 242.048C292.419 242.048 296.156 241.467 304.337 243.618C310.806 245.329 312.91 247.936 312.91 247.936L315.108 239.096C315.108 239.096 308.34 232.077 293.094 233.176Z"
                fill="black"
              />
              <path
                d="M165.188 206.122L156.301 210.393C158.791 213.39 160.457 216.983 161.137 220.819C162.05 224.726 162.513 228.725 162.519 232.737L171.799 230.429C171.881 225.901 171.31 221.384 170.103 217.019C168.093 209.42 165.188 206.122 165.188 206.122Z"
                fill="#0B48E6"
              />
              <path
                opacity="0.3"
                d="M165.188 206.122L156.301 210.393C158.791 213.39 160.457 216.983 161.137 220.819C162.05 224.726 162.513 228.725 162.519 232.737L171.799 230.429C171.881 225.901 171.31 221.384 170.103 217.019C168.093 209.42 165.188 206.122 165.188 206.122Z"
                fill="black"
              />
              <path
                d="M151.481 233.428C145.449 231.607 139.998 228.24 135.669 223.661C135.328 223.362 135.06 222.988 134.886 222.569C134.712 222.15 134.636 221.696 134.665 221.243C134.834 220.698 135.149 220.21 135.575 219.83L138.496 216.69C139.761 215.449 140.854 214.044 141.746 212.513C142.304 211.567 142.525 210.46 142.374 209.373C142.123 208.289 141.762 207.803 140.647 207.693C139.733 207.955 138.905 208.453 138.245 209.137C135.104 211.712 132.702 212.058 128.431 214.617C124.16 217.176 118.696 219.218 115.273 218.998C104.878 217.051 58.3545 202.134 58.3545 202.134C58.3545 202.134 36.3721 162.048 32.3368 153.836C28.3015 145.624 25.1454 138.134 18.2053 133.549C8.18762 136.957 -0.903634 152.281 5.75387 167.371C12.4114 182.46 31.7087 213.612 35.2573 219.657C38.8059 225.702 41.9462 228.796 50.8177 230.805C59.2023 232.721 97.7499 236.505 108.458 237.981L108.317 238.327C115.399 239.206 117.157 240.164 118.288 240.666C123.14 242.802 130.252 241.985 136.093 241.247C137.308 241.148 138.503 240.879 139.642 240.446C140.71 239.991 141.652 239.284 142.782 238.876C144.637 238.359 146.519 237.945 148.419 237.636C150.262 237.206 151.938 236.245 153.24 234.872C153.412 234.668 154.433 233.616 154.449 233.302C153.51 233.715 152.451 233.76 151.481 233.428V233.428Z"
                fill="#FFBDA7"
              />
              <path
                d="M17.8446 131.838C8.84753 135.685 -1.68829 148.749 3.44616 163.539C8.5806 178.33 30.6257 213.926 34.3941 220.191C38.1625 226.456 40.5649 229.392 46.296 230.994C52.0271 232.595 80.0232 235.39 80.0232 235.39C82.3438 230.739 83.8318 225.717 84.4196 220.552C85.613 211.398 82.6925 209.09 82.6925 209.09L59.14 201.522C59.14 201.522 33.1537 151.826 29.558 145.294C25.9623 138.762 22.4295 133.722 17.8446 131.838Z"
                fill="#2A62F2"
              />
              <path
                opacity="0.15"
                d="M17.8446 131.838C8.84753 135.685 -1.68829 148.749 3.44616 163.539C8.5806 178.33 30.6257 213.926 34.3941 220.191C38.1625 226.456 40.5649 229.392 46.296 230.994C52.0271 232.595 80.0232 235.39 80.0232 235.39C82.3438 230.739 83.8318 225.717 84.4196 220.552C85.613 211.398 82.6925 209.09 82.6925 209.09L59.14 201.522C59.14 201.522 33.1537 151.826 29.558 145.294C25.9623 138.762 22.4295 133.722 17.8446 131.838Z"
                fill="black"
              />
              <path
                d="M138.072 240.823C136.782 241.081 135.443 240.932 134.241 240.399C132.67 239.08 130.959 238.578 129.766 236.866C129.359 236.201 128.891 235.576 128.368 234.998C127.432 234.158 126.322 233.537 125.118 233.176C124.003 232.768 122.998 232.156 121.836 231.779C121.271 231.591 120.36 231.575 120.093 232.25C119.59 231.641 118.997 231.112 118.335 230.68C117.613 230.24 115.885 229.675 115.399 230.68C115.291 230.977 115.237 231.291 115.242 231.606C115.163 233.49 115.069 235.39 114.99 237.29C114.945 237.763 114.972 238.239 115.069 238.703C115.26 239.233 115.559 239.719 115.945 240.129C116.331 240.539 116.797 240.867 117.314 241.09C117.894 241.414 118.518 241.652 119.167 241.797C119.968 241.954 120.737 241.891 121.585 242.048C123.234 242.378 124.631 243.618 126.296 243.744C127.332 243.744 128.352 243.383 129.436 243.351C130.293 243.388 131.147 243.472 131.995 243.602C133.141 243.697 137.067 241.42 138.072 240.823Z"
                fill="#B16668"
              />
              <path
                d="M123.784 217.569C123.014 217.914 122.213 218.244 121.475 218.637C119.58 219.815 117.746 221.088 115.98 222.452C114.803 223.293 113.476 223.9 112.07 224.242C111.112 224.446 108.93 224.698 108.584 223.379C108.515 222.949 108.616 222.509 108.867 222.154C109.668 220.678 110.531 219.218 111.458 217.804C112.227 216.377 113.261 215.109 114.504 214.068C116.089 212.987 117.777 212.067 119.544 211.32C120.294 210.963 121.078 210.685 121.884 210.488C123.388 210.266 124.92 210.319 126.406 210.645C128.635 210.99 131.791 211.335 134.021 211.697C133.597 212.026 132.451 212.811 132.231 212.984L129.42 214.554C127.583 215.7 125.715 216.69 123.784 217.569Z"
                fill="#B16668"
              />
              <path
                d="M321.98 43.9801C321.26 44.6998 320.406 45.2706 319.466 45.6601C318.526 46.0496 317.518 46.2501 316.5 46.2501C315.482 46.2501 314.474 46.0496 313.534 45.6601C312.594 45.2706 311.74 44.6998 311.02 43.9801M332 38.5C332 40.5355 331.599 42.551 330.82 44.4316C330.041 46.3121 328.899 48.0208 327.46 49.4602C326.021 50.8995 324.312 52.0412 322.432 52.8201C320.551 53.5991 318.535 54 316.5 54C314.465 54 312.449 53.5991 310.568 52.8201C308.688 52.0412 306.979 50.8995 305.54 49.4602C304.101 48.0208 302.959 46.3121 302.18 44.4316C301.401 42.551 301 40.5355 301 38.5C301 34.3891 302.633 30.4467 305.54 27.5398C308.447 24.633 312.389 23 316.5 23C320.611 23 324.553 24.633 327.46 27.5398C330.367 30.4467 332 34.3891 332 38.5ZM312.625 34.625C312.625 35.338 312.336 35.9167 311.979 35.9167C311.623 35.9167 311.333 35.338 311.333 34.625C311.333 33.912 311.623 33.3333 311.979 33.3333C312.336 33.3333 312.625 33.912 312.625 34.625ZM311.979 34.625H311.993V34.6508H311.979V34.625ZM321.667 34.625C321.667 35.338 321.377 35.9167 321.021 35.9167C320.664 35.9167 320.375 35.338 320.375 34.625C320.375 33.912 320.664 33.3333 321.021 33.3333C321.377 33.3333 321.667 33.912 321.667 34.625ZM321.021 34.625H321.035V34.6508H321.021V34.625Z"
                stroke="#605D5D"
                stroke-width="2.5"
                stroke-linecap="round"
                stroke-linejoin="round"
              />
            </svg>