          <svg className='w-full h-full' viewBox="0 0 403 460" fill="none" xmlns="http://www.w3.org/2000/svg">
<path opacity="0.7" d="M26.93 138.09C26.93 138.09 -0.950006 210.09 38.23 282.59C77.41 355.09 158.11 393.39 222.7 426.14C287.29 458.89 354.36 442.94 386.23 389.3C418.1 335.66 374.39 297.37 374.33 220.88C374.27 144.39 385.78 124.14 344.33 59.52C302.88 -5.09999 201.27 -19.41 124.43 28.52C47.59 76.45 26.93 138.09 26.93 138.09Z" fill="white"/>
<path d="M209.94 77.97V84.61" stroke="#263238" stroke-width="1.10721" stroke-linecap="round" stroke-linejoin="round"/>
<path d="M209.94 91.78V102.53" stroke="#263238" stroke-width="1.10721" stroke-linecap="round" stroke-linejoin="round" stroke-dasharray="7.17 7.17"/>
<path d="M209.94 106.11V112.75" stroke="#263238" stroke-width="1.10721" stroke-linecap="round" stroke-linejoin="round"/>
<path d="M315.91 190.38H309.27" stroke="#263238" stroke-width="1.10721" stroke-linecap="round" stroke-linejoin="round"/>
<path d="M302.1 190.38H291.35" stroke="#263238" stroke-width="1.10721" stroke-linecap="round" stroke-linejoin="round" stroke-dasharray="7.17 7.17"/>
<path d="M287.77 190.38H281.13" stroke="#263238" stroke-width="1.10721" stroke-linecap="round" stroke-linejoin="round"/>
<path d="M138.76 190.38H132.11" stroke="#263238" stroke-width="1.10721" stroke-linecap="round" stroke-linejoin="round"/>
<path d="M124.95 190.38H114.2" stroke="#263238" stroke-width="1.10721" stroke-linecap="round" stroke-linejoin="round" stroke-dasharray="7.17 7.17"/>
<path d="M110.62 190.38H103.97" stroke="#263238" stroke-width="1.10721" stroke-linecap="round" stroke-linejoin="round"/>
<path d="M393 212.9C393 212.436 393.184 211.991 393.513 211.663C393.841 211.334 394.286 211.15 394.75 211.15C395.214 211.15 395.659 211.334 395.987 211.663C396.316 211.991 396.5 212.436 396.5 212.9V216.72C396.5 217.184 396.316 217.629 395.987 217.957C395.659 218.286 395.214 218.47 394.75 218.47C394.286 218.47 393.841 218.286 393.513 217.957C393.184 217.629 393 217.184 393 216.72V212.9ZM394.15 216.79C394.15 217.31 394.38 217.51 394.75 217.51C395.12 217.51 395.34 217.31 395.34 216.79V212.79C395.34 212.27 395.11 212.07 394.75 212.07C394.39 212.07 394.15 212.27 394.15 212.79V216.79Z" fill="#263238"/>
<path d="M393.82 222.54C394.108 222.576 394.398 222.5 394.632 222.329C394.866 222.158 395.026 221.905 395.08 221.62H395.86V229H394.71V223.41H393.82V222.54Z" fill="#263238"/>
<path d="M393 233.85C393 233.386 393.184 232.941 393.513 232.613C393.841 232.284 394.286 232.1 394.75 232.1C395.214 232.1 395.659 232.284 395.987 232.613C396.316 232.941 396.5 233.386 396.5 233.85V237.66C396.5 238.124 396.316 238.569 395.987 238.897C395.659 239.226 395.214 239.41 394.75 239.41C394.286 239.41 393.841 239.226 393.513 238.897C393.184 238.569 393 238.124 393 237.66V233.85ZM394.15 237.74C394.15 238.26 394.38 238.46 394.75 238.46C395.12 238.46 395.34 238.26 395.34 237.74V233.74C395.34 233.21 395.11 233.02 394.75 233.02C394.39 233.02 394.15 233.21 394.15 233.74V237.74Z" fill="#263238"/>
<path d="M393.82 243.49C394.108 243.526 394.398 243.45 394.632 243.279C394.866 243.108 395.026 242.855 395.08 242.57H395.86V249.89H394.71V244.3H393.82V243.49Z" fill="#263238"/>
<path d="M393 254.8C393 254.336 393.184 253.891 393.513 253.563C393.841 253.234 394.286 253.05 394.75 253.05C395.214 253.05 395.659 253.234 395.987 253.563C396.316 253.891 396.5 254.336 396.5 254.8V258.61C396.5 259.074 396.316 259.519 395.987 259.847C395.659 260.176 395.214 260.36 394.75 260.36C394.286 260.36 393.841 260.176 393.513 259.847C393.184 259.519 393 259.074 393 258.61V254.8ZM394.15 258.68C394.15 259.21 394.38 259.4 394.75 259.4C395.12 259.4 395.34 259.21 395.34 258.68V254.68C395.34 254.16 395.11 253.96 394.75 253.96C394.39 253.96 394.15 254.16 394.15 254.68V258.68Z" fill="#263238"/>
<path d="M393.82 264.43C394.108 264.466 394.398 264.39 394.632 264.219C394.866 264.048 395.026 263.795 395.08 263.51H395.86V270.84H394.71V265.25H393.82V264.43Z" fill="#263238"/>
<path d="M393 275.74C393 275.276 393.184 274.831 393.513 274.503C393.841 274.174 394.286 273.99 394.75 273.99C395.214 273.99 395.659 274.174 395.987 274.503C396.316 274.831 396.5 275.276 396.5 275.74V279.56C396.5 280.024 396.316 280.469 395.987 280.797C395.659 281.126 395.214 281.31 394.75 281.31C394.286 281.31 393.841 281.126 393.513 280.797C393.184 280.469 393 280.024 393 279.56V275.74ZM394.15 279.63C394.15 280.15 394.38 280.35 394.75 280.35C395.12 280.35 395.34 280.15 395.34 279.63V275.63C395.34 275.11 395.11 274.91 394.75 274.91C394.39 274.91 394.15 275.11 394.15 275.63V279.63Z" fill="#263238"/>
<path d="M393 286.22C393 285.756 393.184 285.311 393.513 284.983C393.841 284.654 394.286 284.47 394.75 284.47C395.214 284.47 395.659 284.654 395.987 284.983C396.316 285.311 396.5 285.756 396.5 286.22V290C396.5 290.464 396.316 290.909 395.987 291.237C395.659 291.566 395.214 291.75 394.75 291.75C394.286 291.75 393.841 291.566 393.513 291.237C393.184 290.909 393 290.464 393 290V286.22ZM394.15 290.1C394.15 290.63 394.38 290.82 394.75 290.82C395.12 290.82 395.34 290.63 395.34 290.1V286.1C395.34 285.57 395.11 285.37 394.75 285.37C394.39 285.37 394.15 285.57 394.15 286.1V290.1Z" fill="#263238"/>
<path d="M393 296.69C393 296.226 393.184 295.781 393.513 295.453C393.841 295.124 394.286 294.94 394.75 294.94C395.214 294.94 395.659 295.124 395.987 295.453C396.316 295.781 396.5 296.226 396.5 296.69V300.5C396.5 300.964 396.316 301.409 395.987 301.737C395.659 302.066 395.214 302.25 394.75 302.25C394.286 302.25 393.841 302.066 393.513 301.737C393.184 301.409 393 300.964 393 300.5V296.69ZM394.15 300.58C394.15 301.1 394.38 301.3 394.75 301.3C395.12 301.3 395.34 301.1 395.34 300.58V296.58C395.34 296.06 395.11 295.86 394.75 295.86C394.39 295.86 394.15 296.06 394.15 296.58V300.58Z" fill="#263238"/>
<path d="M393.82 316.8C394.108 316.836 394.398 316.76 394.632 316.589C394.866 316.418 395.026 316.165 395.08 315.88H395.86V323.21H394.71V317.62H393.82V316.8Z" fill="#263238"/>
<path d="M393.82 327.28C394.109 327.318 394.402 327.242 394.637 327.069C394.872 326.895 395.031 326.638 395.08 326.35H395.86V333.68H394.71V328.09H393.82V327.28Z" fill="#263238"/>
<path d="M393.82 337.75C394.108 337.786 394.398 337.71 394.632 337.539C394.866 337.368 395.026 337.115 395.08 336.83H395.86V344.15H394.71V338.57H393.82V337.75Z" fill="#263238"/>
<path d="M393 349.06C393 348.596 393.184 348.151 393.513 347.823C393.841 347.494 394.286 347.31 394.75 347.31C395.214 347.31 395.659 347.494 395.987 347.823C396.316 348.151 396.5 348.596 396.5 349.06V352.87C396.5 353.334 396.316 353.779 395.987 354.107C395.659 354.436 395.214 354.62 394.75 354.62C394.286 354.62 393.841 354.436 393.513 354.107C393.184 353.779 393 353.334 393 352.87V349.06ZM394.15 352.94C394.15 353.47 394.38 353.66 394.75 353.66C395.12 353.66 395.34 353.47 395.34 352.94V349C395.34 348.47 395.11 348.27 394.75 348.27C394.39 348.27 394.15 348.47 394.15 349V352.94Z" fill="#263238"/>
<path d="M393 359.53C393 359.066 393.184 358.621 393.513 358.293C393.841 357.964 394.286 357.78 394.75 357.78C395.214 357.78 395.659 357.964 395.987 358.293C396.316 358.621 396.5 359.066 396.5 359.53V363.34C396.5 363.804 396.316 364.249 395.987 364.577C395.659 364.906 395.214 365.09 394.75 365.09C394.286 365.09 393.841 364.906 393.513 364.577C393.184 364.249 393 363.804 393 363.34V359.53ZM394.15 363.42C394.15 363.94 394.38 364.14 394.75 364.14C395.12 364.14 395.34 363.94 395.34 363.42V359.42C395.34 358.9 395.11 358.7 394.75 358.7C394.39 358.7 394.15 358.9 394.15 359.42V363.42Z" fill="#263238"/>
<path d="M393.82 369.17C394.108 369.206 394.398 369.13 394.632 368.959C394.866 368.788 395.026 368.535 395.08 368.25H395.86V375.57H394.71V370H393.82V369.17Z" fill="#263238"/>
<path d="M400 201.59C400.289 201.626 400.58 201.551 400.816 201.38C401.052 201.209 401.214 200.956 401.27 200.67H402.04V208H400.89V202.41H400V201.59Z" fill="#263238"/>
<path d="M400 212.07C400.289 212.106 400.58 212.031 400.816 211.86C401.052 211.689 401.214 211.436 401.27 211.15H402.04V218.47H400.89V212.88H400V212.07Z" fill="#263238"/>
<path d="M399.24 233.85C399.222 233.61 399.253 233.368 399.333 233.141C399.412 232.913 399.538 232.705 399.702 232.528C399.866 232.351 400.064 232.21 400.285 232.114C400.506 232.018 400.744 231.968 400.985 231.968C401.226 231.968 401.464 232.018 401.685 232.114C401.906 232.21 402.104 232.351 402.268 232.528C402.432 232.705 402.558 232.913 402.637 233.141C402.717 233.368 402.748 233.61 402.73 233.85V237.66C402.748 237.9 402.717 238.142 402.637 238.369C402.558 238.597 402.432 238.805 402.268 238.982C402.104 239.159 401.906 239.3 401.685 239.396C401.464 239.492 401.226 239.542 400.985 239.542C400.744 239.542 400.506 239.492 400.285 239.396C400.064 239.3 399.866 239.159 399.702 238.982C399.538 238.805 399.412 238.597 399.333 238.369C399.253 238.142 399.222 237.9 399.24 237.66V233.85ZM400.39 237.74C400.39 238.26 400.62 238.46 400.98 238.46C401.34 238.46 401.58 238.26 401.58 237.74V233.74C401.58 233.21 401.35 233.02 400.98 233.02C400.61 233.02 400.39 233.21 400.39 233.74V237.74Z" fill="#263238"/>
<path d="M400 264.43C400.289 264.466 400.58 264.391 400.816 264.22C401.052 264.049 401.214 263.796 401.27 263.51H402.04V270.84H400.89V265.25H400V264.43Z" fill="#263238"/>
<path d="M399.24 275.74C399.222 275.5 399.253 275.258 399.333 275.031C399.412 274.803 399.538 274.595 399.702 274.418C399.866 274.241 400.064 274.1 400.285 274.004C400.506 273.908 400.744 273.858 400.985 273.858C401.226 273.858 401.464 273.908 401.685 274.004C401.906 274.1 402.104 274.241 402.268 274.418C402.432 274.595 402.558 274.803 402.637 275.031C402.717 275.258 402.748 275.5 402.73 275.74V279.56C402.748 279.8 402.717 280.042 402.637 280.269C402.558 280.497 402.432 280.705 402.268 280.882C402.104 281.059 401.906 281.2 401.685 281.296C401.464 281.392 401.226 281.442 400.985 281.442C400.744 281.442 400.506 281.392 400.285 281.296C400.064 281.2 399.866 281.059 399.702 280.882C399.538 280.705 399.412 280.497 399.333 280.269C399.253 280.042 399.222 279.8 399.24 279.56V275.74ZM400.39 279.63C400.39 280.15 400.62 280.35 400.98 280.35C401.34 280.35 401.58 280.15 401.58 279.63V275.63C401.58 275.11 401.35 274.91 400.98 274.91C400.61 274.91 400.39 275.11 400.39 275.63V279.63Z" fill="#263238"/>
<path d="M400 285.38C400.289 285.416 400.58 285.341 400.816 285.17C401.052 284.999 401.214 284.746 401.27 284.46H402.04V291.79H400.89V286.2H400V285.38Z" fill="#263238"/>
<path d="M400 295.85C400.289 295.888 400.582 295.814 400.818 295.643C401.055 295.472 401.216 295.217 401.27 294.93H402.04V302.26H400.89V296.67H400V295.85Z" fill="#263238"/>
<path d="M400 306.33C400.289 306.366 400.58 306.291 400.816 306.12C401.052 305.949 401.214 305.696 401.27 305.41H402.04V312.73H400.89V307.14H400V306.33Z" fill="#263238"/>
<path d="M399.24 317.64C399.222 317.4 399.253 317.158 399.333 316.931C399.412 316.703 399.538 316.495 399.702 316.318C399.866 316.141 400.064 316 400.285 315.904C400.506 315.808 400.744 315.758 400.985 315.758C401.226 315.758 401.464 315.808 401.685 315.904C401.906 316 402.104 316.141 402.268 316.318C402.432 316.495 402.558 316.703 402.637 316.931C402.717 317.158 402.748 317.4 402.73 317.64V321.45C402.748 321.69 402.717 321.932 402.637 322.159C402.558 322.387 402.432 322.595 402.268 322.772C402.104 322.949 401.906 323.09 401.685 323.186C401.464 323.282 401.226 323.332 400.985 323.332C400.744 323.332 400.506 323.282 400.285 323.186C400.064 323.09 399.866 322.949 399.702 322.772C399.538 322.595 399.412 322.387 399.333 322.159C399.253 321.932 399.222 321.69 399.24 321.45V317.64ZM400.39 321.52C400.39 322.05 400.62 322.24 400.98 322.24C401.34 322.24 401.58 322.05 401.58 321.52V317.57C401.58 317.04 401.35 316.84 400.98 316.84C400.61 316.84 400.39 317.04 400.39 317.57V321.52Z" fill="#263238"/>
<path d="M399.24 328.11C399.222 327.87 399.253 327.628 399.333 327.401C399.412 327.173 399.538 326.965 399.702 326.788C399.866 326.611 400.064 326.47 400.285 326.374C400.506 326.278 400.744 326.228 400.985 326.228C401.226 326.228 401.464 326.278 401.685 326.374C401.906 326.47 402.104 326.611 402.268 326.788C402.432 326.965 402.558 327.173 402.637 327.401C402.717 327.628 402.748 327.87 402.73 328.11V331.92C402.748 332.16 402.717 332.402 402.637 332.629C402.558 332.857 402.432 333.065 402.268 333.242C402.104 333.419 401.906 333.56 401.685 333.656C401.464 333.752 401.226 333.802 400.985 333.802C400.744 333.802 400.506 333.752 400.285 333.656C400.064 333.56 399.866 333.419 399.702 333.242C399.538 333.065 399.412 332.857 399.333 332.629C399.253 332.402 399.222 332.16 399.24 331.92V328.11ZM400.39 332C400.39 332.52 400.62 332.72 400.98 332.72C401.34 332.72 401.58 332.52 401.58 332V328C401.58 327.48 401.35 327.28 400.98 327.28C400.61 327.28 400.39 327.48 400.39 328V332Z" fill="#263238"/>
<path d="M387.59 264.43C387.879 264.466 388.17 264.391 388.406 264.22C388.642 264.049 388.804 263.796 388.86 263.51H389.63V270.84H388.48V265.25H387.59V264.43Z" fill="#263238"/>
<path d="M386.78 275.74C386.78 275.276 386.964 274.831 387.293 274.503C387.621 274.174 388.066 273.99 388.53 273.99C388.994 273.99 389.439 274.174 389.767 274.503C390.096 274.831 390.28 275.276 390.28 275.74V279.56C390.28 280.024 390.096 280.469 389.767 280.797C389.439 281.126 388.994 281.31 388.53 281.31C388.066 281.31 387.621 281.126 387.293 280.797C386.964 280.469 386.78 280.024 386.78 279.56V275.74ZM387.93 279.63C387.93 280.15 388.16 280.35 388.53 280.35C388.9 280.35 389.13 280.15 389.13 279.63V275.63C389.13 275.11 388.9 274.91 388.53 274.91C388.16 274.91 387.93 275.11 387.93 275.63V279.63Z" fill="#263238"/>
<path d="M386.78 286.22C386.78 285.756 386.964 285.311 387.293 284.983C387.621 284.654 388.066 284.47 388.53 284.47C388.994 284.47 389.439 284.654 389.767 284.983C390.096 285.311 390.28 285.756 390.28 286.22V290C390.28 290.464 390.096 290.909 389.767 291.237C389.439 291.566 388.994 291.75 388.53 291.75C388.066 291.75 387.621 291.566 387.293 291.237C386.964 290.909 386.78 290.464 386.78 290V286.22ZM387.93 290.1C387.93 290.63 388.16 290.82 388.53 290.82C388.9 290.82 389.13 290.63 389.13 290.1V286.1C389.13 285.57 388.9 285.37 388.53 285.37C388.16 285.37 387.93 285.57 387.93 286.1V290.1Z" fill="#263238"/>
<path d="M387.59 295.85C387.879 295.888 388.172 295.814 388.408 295.643C388.645 295.472 388.806 295.217 388.86 294.93H389.63V302.26H388.48V296.67H387.59V295.85Z" fill="#263238"/>
<path d="M387.59 316.8C387.879 316.836 388.17 316.761 388.406 316.59C388.642 316.419 388.804 316.166 388.86 315.88H389.63V323.21H388.48V317.62H387.59V316.8Z" fill="#263238"/>
<path d="M387.59 327.28C387.88 327.315 388.173 327.239 388.409 327.066C388.645 326.894 388.806 326.637 388.86 326.35H389.63V333.68H388.48V328.09H387.59V327.28Z" fill="#263238"/>
<path d="M387.59 337.75C387.879 337.786 388.17 337.711 388.406 337.54C388.642 337.369 388.804 337.116 388.86 336.83H389.63V344.15H388.48V338.57H387.59V337.75Z" fill="#263238"/>
<path d="M380.56 233.85C380.542 233.61 380.573 233.368 380.653 233.141C380.732 232.913 380.858 232.705 381.022 232.528C381.185 232.351 381.384 232.21 381.605 232.114C381.826 232.018 382.064 231.968 382.305 231.968C382.546 231.968 382.784 232.018 383.005 232.114C383.226 232.21 383.424 232.351 383.588 232.528C383.752 232.705 383.878 232.913 383.957 233.141C384.037 233.368 384.068 233.61 384.05 233.85V237.66C384.068 237.9 384.037 238.142 383.957 238.369C383.878 238.597 383.752 238.805 383.588 238.982C383.424 239.159 383.226 239.3 383.005 239.396C382.784 239.492 382.546 239.542 382.305 239.542C382.064 239.542 381.826 239.492 381.605 239.396C381.384 239.3 381.185 239.159 381.022 238.982C380.858 238.805 380.732 238.597 380.653 238.369C380.573 238.142 380.542 237.9 380.56 237.66V233.85ZM381.71 237.74C381.71 238.26 381.94 238.46 382.3 238.46C382.66 238.46 382.9 238.26 382.9 237.74V233.74C382.9 233.21 382.67 233.02 382.3 233.02C381.93 233.02 381.71 233.21 381.71 233.74V237.74Z" fill="#263238"/>
<path d="M380.56 254.8C380.542 254.56 380.573 254.318 380.653 254.091C380.732 253.863 380.858 253.655 381.022 253.478C381.185 253.301 381.384 253.16 381.605 253.064C381.826 252.968 382.064 252.918 382.305 252.918C382.546 252.918 382.784 252.968 383.005 253.064C383.226 253.16 383.424 253.301 383.588 253.478C383.752 253.655 383.878 253.863 383.957 254.091C384.037 254.318 384.068 254.56 384.05 254.8V258.61C384.068 258.85 384.037 259.092 383.957 259.319C383.878 259.547 383.752 259.755 383.588 259.932C383.424 260.109 383.226 260.25 383.005 260.346C382.784 260.442 382.546 260.492 382.305 260.492C382.064 260.492 381.826 260.442 381.605 260.346C381.384 260.25 381.185 260.109 381.022 259.932C380.858 259.755 380.732 259.547 380.653 259.319C380.573 259.092 380.542 258.85 380.56 258.61V254.8ZM381.71 258.68C381.71 259.21 381.94 259.4 382.3 259.4C382.66 259.4 382.9 259.21 382.9 258.68V254.68C382.9 254.16 382.67 253.96 382.3 253.96C381.93 253.96 381.71 254.16 381.71 254.68V258.68Z" fill="#263238"/>
<path d="M381.36 285.38C381.649 285.416 381.94 285.341 382.176 285.17C382.412 284.999 382.574 284.746 382.63 284.46H383.4V291.79H382.25V286.2H381.36V285.38Z" fill="#263238"/>
<path d="M381.36 295.85C381.649 295.888 381.942 295.814 382.178 295.643C382.415 295.472 382.576 295.217 382.63 294.93H383.4V302.26H382.25V296.67H381.36V295.85Z" fill="#263238"/>
<path d="M381.36 327.28C381.65 327.315 381.943 327.239 382.179 327.066C382.415 326.894 382.576 326.637 382.63 326.35H383.4V333.68H382.25V328.09H381.36V327.28Z" fill="#263238"/>
<path d="M380.56 338.59C380.542 338.35 380.573 338.108 380.653 337.881C380.732 337.653 380.858 337.445 381.022 337.268C381.185 337.091 381.384 336.95 381.605 336.854C381.826 336.758 382.064 336.708 382.305 336.708C382.546 336.708 382.784 336.758 383.005 336.854C383.226 336.95 383.424 337.091 383.588 337.268C383.752 337.445 383.878 337.653 383.957 337.881C384.037 338.108 384.068 338.35 384.05 338.59V342.4C384.068 342.64 384.037 342.882 383.957 343.109C383.878 343.337 383.752 343.545 383.588 343.722C383.424 343.899 383.226 344.04 383.005 344.136C382.784 344.232 382.546 344.282 382.305 344.282C382.064 344.282 381.826 344.232 381.605 344.136C381.384 344.04 381.185 343.899 381.022 343.722C380.858 343.545 380.732 343.337 380.653 343.109C380.573 342.882 380.542 342.64 380.56 342.4V338.59ZM381.71 342.47C381.71 342.99 381.94 343.19 382.3 343.19C382.66 343.19 382.9 342.99 382.9 342.47V338.47C382.9 337.95 382.67 337.75 382.3 337.75C381.93 337.75 381.71 337.95 381.71 338.47V342.47Z" fill="#263238"/>
<path d="M381.36 348.22C381.649 348.256 381.94 348.181 382.176 348.01C382.412 347.839 382.574 347.586 382.63 347.3H383.4V354.63H382.25V349H381.36V348.22Z" fill="#263238"/>
<path d="M122.73 245C122.73 244.536 122.914 244.091 123.243 243.763C123.571 243.434 124.016 243.25 124.48 243.25C124.944 243.25 125.389 243.434 125.717 243.763C126.046 244.091 126.23 244.536 126.23 245V248.81C126.23 249.274 126.046 249.719 125.717 250.047C125.389 250.376 124.944 250.56 124.48 250.56C124.016 250.56 123.571 250.376 123.243 250.047C122.914 249.719 122.73 249.274 122.73 248.81V245ZM123.88 248.88C123.88 249.41 124.11 249.61 124.48 249.61C124.85 249.61 125.07 249.41 125.07 248.88V244.88C125.07 244.35 124.84 244.15 124.48 244.15C124.12 244.15 123.88 244.35 123.88 244.88V248.88Z" fill="#263238"/>
<path d="M122.73 255.5C122.73 255.036 122.914 254.591 123.243 254.263C123.571 253.934 124.016 253.75 124.48 253.75C124.944 253.75 125.389 253.934 125.717 254.263C126.046 254.591 126.23 255.036 126.23 255.5V259.31C126.23 259.774 126.046 260.219 125.717 260.547C125.389 260.876 124.944 261.06 124.48 261.06C124.016 261.06 123.571 260.876 123.243 260.547C122.914 260.219 122.73 259.774 122.73 259.31V255.5ZM123.88 259.39C123.88 259.91 124.11 260.11 124.48 260.11C124.85 260.11 125.07 259.91 125.07 259.39V255.39C125.07 254.87 124.84 254.67 124.48 254.67C124.12 254.67 123.88 254.87 123.88 255.39V259.39Z" fill="#263238"/>
<path d="M123.54 265.14C123.828 265.176 124.118 265.1 124.352 264.929C124.586 264.758 124.746 264.505 124.8 264.22H125.58V271.55H124.43V266H123.54V265.14Z" fill="#263238"/>
<path d="M122.73 276.45C122.73 275.986 122.914 275.541 123.243 275.213C123.571 274.884 124.016 274.7 124.48 274.7C124.944 274.7 125.389 274.884 125.717 275.213C126.046 275.541 126.23 275.986 126.23 276.45V280.26C126.23 280.724 126.046 281.169 125.717 281.497C125.389 281.826 124.944 282.01 124.48 282.01C124.016 282.01 123.571 281.826 123.243 281.497C122.914 281.169 122.73 280.724 122.73 280.26V276.45ZM123.88 280.33C123.88 280.86 124.11 281.06 124.48 281.06C124.85 281.06 125.07 280.86 125.07 280.33V276.38C125.07 275.85 124.84 275.65 124.48 275.65C124.12 275.65 123.88 275.85 123.88 276.38V280.33Z" fill="#263238"/>
<path d="M123.54 286.09C123.828 286.125 124.118 286.05 124.352 285.879C124.586 285.708 124.746 285.455 124.8 285.17H125.58V292.49H124.43V286.9H123.54V286.09Z" fill="#263238"/>
<path d="M122.73 297.4C122.73 296.936 122.914 296.491 123.243 296.163C123.571 295.834 124.016 295.65 124.48 295.65C124.944 295.65 125.389 295.834 125.717 296.163C126.046 296.491 126.23 296.936 126.23 297.4V301.21C126.23 301.674 126.046 302.119 125.717 302.447C125.389 302.776 124.944 302.96 124.48 302.96C124.016 302.96 123.571 302.776 123.243 302.447C122.914 302.119 122.73 301.674 122.73 301.21V297.4ZM123.88 301.28C123.88 301.8 124.11 302 124.48 302C124.85 302 125.07 301.8 125.07 301.28V297.28C125.07 296.76 124.84 296.56 124.48 296.56C124.12 296.56 123.88 296.76 123.88 297.28V301.28Z" fill="#263238"/>
<path d="M123.54 307C123.828 307.036 124.118 306.96 124.352 306.789C124.586 306.618 124.746 306.365 124.8 306.08H125.58V313.41H124.43V307.82H123.54V307Z" fill="#263238"/>
<path d="M122.73 318.34C122.73 317.876 122.914 317.431 123.243 317.103C123.571 316.774 124.016 316.59 124.48 316.59C124.944 316.59 125.389 316.774 125.717 317.103C126.046 317.431 126.23 317.876 126.23 318.34V322.15C126.23 322.614 126.046 323.059 125.717 323.387C125.389 323.716 124.944 323.9 124.48 323.9C124.016 323.9 123.571 323.716 123.243 323.387C122.914 323.059 122.73 322.614 122.73 322.15V318.34ZM123.88 322.23C123.88 322.75 124.11 322.95 124.48 322.95C124.85 322.95 125.07 322.75 125.07 322.23V318.23C125.07 317.71 124.84 317.51 124.48 317.51C124.12 317.51 123.88 317.71 123.88 318.23V322.23Z" fill="#263238"/>
<path d="M122.73 328.82C122.73 328.356 122.914 327.911 123.243 327.583C123.571 327.254 124.016 327.07 124.48 327.07C124.944 327.07 125.389 327.254 125.717 327.583C126.046 327.911 126.23 328.356 126.23 328.82V332.63C126.23 333.094 126.046 333.539 125.717 333.867C125.389 334.196 124.944 334.38 124.48 334.38C124.016 334.38 123.571 334.196 123.243 333.867C122.914 333.539 122.73 333.094 122.73 332.63V328.82ZM123.88 332.7C123.88 333.22 124.11 333.42 124.48 333.42C124.85 333.42 125.07 333.22 125.07 332.7V328.7C125.07 328.18 124.84 327.98 124.48 327.98C124.12 327.98 123.88 328.18 123.88 328.7V332.7Z" fill="#263238"/>
<path d="M122.73 339.29C122.73 338.826 122.914 338.381 123.243 338.053C123.571 337.724 124.016 337.54 124.48 337.54C124.944 337.54 125.389 337.724 125.717 338.053C126.046 338.381 126.23 338.826 126.23 339.29V343.1C126.23 343.564 126.046 344.009 125.717 344.337C125.389 344.666 124.944 344.85 124.48 344.85C124.016 344.85 123.571 344.666 123.243 344.337C122.914 344.009 122.73 343.564 122.73 343.1V339.29ZM123.88 343.17C123.88 343.7 124.11 343.9 124.48 343.9C124.85 343.9 125.07 343.7 125.07 343.17V339.22C125.07 338.69 124.84 338.5 124.48 338.5C124.12 338.5 123.88 338.69 123.88 339.22V343.17Z" fill="#263238"/>
<path d="M123.54 348.93C123.828 348.966 124.118 348.89 124.352 348.719C124.586 348.548 124.746 348.295 124.8 348.01H125.58V355.33H124.43V349.74H123.54V348.93Z" fill="#263238"/>
<path d="M123.54 359.4C123.828 359.435 124.118 359.36 124.352 359.189C124.586 359.018 124.746 358.765 124.8 358.48H125.58V365.81H124.43V360.22H123.54V359.4Z" fill="#263238"/>
<path d="M123.54 369.87C123.828 369.906 124.118 369.83 124.352 369.659C124.586 369.488 124.746 369.235 124.8 368.95H125.58V376.28H124.43V370.69H123.54V369.87Z" fill="#263238"/>
<path d="M123.54 380.35C123.828 380.386 124.118 380.31 124.352 380.139C124.586 379.968 124.746 379.715 124.8 379.43H125.58V386.75H124.43V381.16H123.54V380.35Z" fill="#263238"/>
<path d="M123.88 395.54C123.88 396.07 124.11 396.26 124.48 396.26C124.85 396.26 125.07 396.07 125.07 395.54V391.54C125.07 391.02 124.84 390.82 124.48 390.82C124.12 390.82 123.88 391.02 123.88 391.54V395.54Z" fill="#263238"/>
<path d="M129.76 286.09C130.049 286.126 130.34 286.051 130.576 285.88C130.812 285.709 130.974 285.456 131.03 285.17H131.8V292.49H130.65V286.9H129.76V286.09Z" fill="#263238"/>
<path d="M129.76 296.56C130.049 296.596 130.34 296.521 130.576 296.35C130.812 296.179 130.974 295.926 131.03 295.64H131.8V303H130.65V297.41H129.76V296.56Z" fill="#263238"/>
<path d="M129 318.34C128.982 318.1 129.013 317.858 129.093 317.631C129.172 317.403 129.298 317.195 129.462 317.018C129.625 316.841 129.824 316.7 130.045 316.604C130.266 316.508 130.504 316.458 130.745 316.458C130.986 316.458 131.224 316.508 131.445 316.604C131.666 316.7 131.864 316.841 132.028 317.018C132.192 317.195 132.318 317.403 132.397 317.631C132.477 317.858 132.508 318.1 132.49 318.34V322.15C132.508 322.39 132.477 322.632 132.397 322.859C132.318 323.087 132.192 323.295 132.028 323.472C131.864 323.649 131.666 323.79 131.445 323.886C131.224 323.982 130.986 324.032 130.745 324.032C130.504 324.032 130.266 323.982 130.045 323.886C129.824 323.79 129.625 323.649 129.462 323.472C129.298 323.295 129.172 323.087 129.093 322.859C129.013 322.632 128.982 322.39 129 322.15V318.34ZM130.15 322.23C130.15 322.75 130.38 322.95 130.74 322.95C131.1 322.95 131.34 322.75 131.34 322.23V318.23C131.34 317.71 131.11 317.51 130.74 317.51C130.37 317.51 130.15 317.71 130.15 318.23V322.23Z" fill="#263238"/>
<path d="M129.76 328C130.049 328.036 130.34 327.961 130.576 327.79C130.812 327.619 130.974 327.366 131.03 327.08H131.8V334.41H130.65V328.8H129.76V328Z" fill="#263238"/>
<path d="M129 339.29C128.982 339.05 129.013 338.808 129.093 338.581C129.172 338.353 129.298 338.145 129.462 337.968C129.625 337.791 129.824 337.65 130.045 337.554C130.266 337.458 130.504 337.408 130.745 337.408C130.986 337.408 131.224 337.458 131.445 337.554C131.666 337.65 131.864 337.791 132.028 337.968C132.192 338.145 132.318 338.353 132.397 338.581C132.477 338.808 132.508 339.05 132.49 339.29V343.1C132.508 343.34 132.477 343.582 132.397 343.809C132.318 344.037 132.192 344.245 132.028 344.422C131.864 344.599 131.666 344.74 131.445 344.836C131.224 344.932 130.986 344.982 130.745 344.982C130.504 344.982 130.266 344.932 130.045 344.836C129.824 344.74 129.625 344.599 129.462 344.422C129.298 344.245 129.172 344.037 129.093 343.809C129.013 343.582 128.982 343.34 129 343.1V339.29ZM130.15 343.17C130.15 343.7 130.38 343.9 130.74 343.9C131.1 343.9 131.34 343.7 131.34 343.17V339.22C131.34 338.69 131.11 338.5 130.74 338.5C130.37 338.5 130.15 338.69 130.15 339.22V343.17Z" fill="#263238"/>
<path d="M130.11 364.12C130.11 364.64 130.34 364.84 130.7 364.84C131.06 364.84 131.3 364.64 131.3 364.12V360.12C131.3 359.6 131.07 359.4 130.7 359.4C130.33 359.4 130.11 359.6 130.11 360.12V364.12Z" fill="#263238"/>
<path d="M129.76 369.87C130.037 369.9 130.315 369.828 130.543 369.668C130.772 369.508 130.934 369.271 131 369H131.77V376.33H130.62V370.74H129.73L129.76 369.87Z" fill="#263238"/>
<path d="M129.76 380.35C130.049 380.386 130.34 380.311 130.576 380.14C130.812 379.969 130.974 379.716 131.03 379.43H131.8V386.75H130.65V381.16H129.76V380.35Z" fill="#263238"/>
<path d="M129 412.6C128.982 412.36 129.013 412.118 129.093 411.891C129.172 411.663 129.298 411.455 129.462 411.278C129.625 411.101 129.824 410.96 130.045 410.864C130.266 410.768 130.504 410.718 130.745 410.718C130.986 410.718 131.224 410.768 131.445 410.864C131.666 410.96 131.864 411.101 132.028 411.278C132.192 411.455 132.318 411.663 132.397 411.891C132.477 412.118 132.508 412.36 132.49 412.6V416.42C132.508 416.66 132.477 416.902 132.397 417.129C132.318 417.357 132.192 417.565 132.028 417.742C131.864 417.919 131.666 418.06 131.445 418.156C131.224 418.252 130.986 418.302 130.745 418.302C130.504 418.302 130.266 418.252 130.045 418.156C129.824 418.06 129.625 417.919 129.462 417.742C129.298 417.565 129.172 417.357 129.093 417.129C129.013 416.902 128.982 416.66 129 416.42V412.6ZM130.15 416.49C130.15 417.01 130.38 417.21 130.74 417.21C131.1 417.21 131.34 417.01 131.34 416.49V412.49C131.34 411.97 131.11 411.77 130.74 411.77C130.37 411.77 130.15 411.97 130.15 412.49V416.49Z" fill="#263238"/>
<path d="M116.5 276.45C116.5 275.986 116.684 275.541 117.013 275.213C117.341 274.884 117.786 274.7 118.25 274.7C118.714 274.7 119.159 274.884 119.487 275.213C119.816 275.541 120 275.986 120 276.45V280.26C120 280.724 119.816 281.169 119.487 281.497C119.159 281.826 118.714 282.01 118.25 282.01C117.786 282.01 117.341 281.826 117.013 281.497C116.684 281.169 116.5 280.724 116.5 280.26V276.45ZM117.65 280.33C117.65 280.86 117.88 281.06 118.25 281.06C118.62 281.06 118.85 280.86 118.85 280.33V276.38C118.85 275.85 118.62 275.65 118.25 275.65C117.88 275.65 117.65 275.85 117.65 276.38V280.33Z" fill="#263238"/>
<path d="M117.31 286.09C117.599 286.126 117.89 286.051 118.126 285.88C118.362 285.709 118.524 285.456 118.58 285.17H119.35V292.49H118.2V286.9H117.31V286.09Z" fill="#263238"/>
<path d="M117.31 296.56C117.599 296.596 117.89 296.521 118.126 296.35C118.362 296.179 118.524 295.926 118.58 295.64H119.35V303H118.2V297.41H117.31V296.56Z" fill="#263238"/>
<path d="M116.5 307.87C116.5 307.406 116.684 306.961 117.013 306.633C117.341 306.304 117.786 306.12 118.25 306.12C118.714 306.12 119.159 306.304 119.487 306.633C119.816 306.961 120 307.406 120 307.87V311.68C120 312.144 119.816 312.589 119.487 312.917C119.159 313.246 118.714 313.43 118.25 313.43C117.786 313.43 117.341 313.246 117.013 312.917C116.684 312.589 116.5 312.144 116.5 311.68V307.87ZM117.65 311.75C117.65 312.28 117.88 312.48 118.25 312.48C118.62 312.48 118.85 312.28 118.85 311.75V307.8C118.85 307.27 118.62 307.07 118.25 307.07C117.88 307.07 117.65 307.27 117.65 307.8V311.75Z" fill="#263238"/>
<path d="M116.5 328.82C116.5 328.356 116.684 327.911 117.013 327.583C117.341 327.254 117.786 327.07 118.25 327.07C118.714 327.07 119.159 327.254 119.487 327.583C119.816 327.911 120 328.356 120 328.82V332.63C120 333.094 119.816 333.539 119.487 333.867C119.159 334.196 118.714 334.38 118.25 334.38C117.786 334.38 117.341 334.196 117.013 333.867C116.684 333.539 116.5 333.094 116.5 332.63V328.82ZM117.65 332.7C117.65 333.22 117.88 333.42 118.25 333.42C118.62 333.42 118.85 333.22 118.85 332.7V328.7C118.85 328.18 118.62 327.98 118.25 327.98C117.88 327.98 117.65 328.18 117.65 328.7V332.7Z" fill="#263238"/>
<path d="M116.5 339.29C116.5 338.826 116.684 338.381 117.013 338.053C117.341 337.724 117.786 337.54 118.25 337.54C118.714 337.54 119.159 337.724 119.487 338.053C119.816 338.381 120 338.826 120 339.29V343.1C120 343.564 119.816 344.009 119.487 344.337C119.159 344.666 118.714 344.85 118.25 344.85C117.786 344.85 117.341 344.666 117.013 344.337C116.684 344.009 116.5 343.564 116.5 343.1V339.29ZM117.65 343.17C117.65 343.7 117.88 343.9 118.25 343.9C118.62 343.9 118.85 343.7 118.85 343.17V339.22C118.85 338.69 118.62 338.5 118.25 338.5C117.88 338.5 117.65 338.69 117.65 339.22V343.17Z" fill="#263238"/>
<path d="M117.31 348.93C117.599 348.966 117.89 348.891 118.126 348.72C118.362 348.549 118.524 348.296 118.58 348.01H119.35V355.33H118.2V349.74H117.31V348.93Z" fill="#263238"/>
<path d="M116.5 360.24C116.5 359.776 116.684 359.331 117.013 359.003C117.341 358.674 117.786 358.49 118.25 358.49C118.714 358.49 119.159 358.674 119.487 359.003C119.816 359.331 120 359.776 120 360.24V364.05C120 364.514 119.816 364.959 119.487 365.287C119.159 365.616 118.714 365.8 118.25 365.8C117.786 365.8 117.341 365.616 117.013 365.287C116.684 364.959 116.5 364.514 116.5 364.05V360.24ZM117.65 364.12C117.65 364.64 117.88 364.84 118.25 364.84C118.62 364.84 118.85 364.64 118.85 364.12V360.12C118.85 359.6 118.62 359.4 118.25 359.4C117.88 359.4 117.65 359.6 117.65 360.12V364.12Z" fill="#263238"/>
<path d="M117.31 369.87C117.599 369.906 117.89 369.831 118.126 369.66C118.362 369.489 118.524 369.236 118.58 368.95H119.35V376.28H118.2V370.69H117.31V369.87Z" fill="#263238"/>
<path d="M110.28 255.5C110.262 255.26 110.293 255.018 110.373 254.791C110.452 254.563 110.578 254.355 110.742 254.178C110.905 254.001 111.104 253.86 111.325 253.764C111.546 253.668 111.784 253.618 112.025 253.618C112.266 253.618 112.504 253.668 112.725 253.764C112.946 253.86 113.144 254.001 113.308 254.178C113.472 254.355 113.598 254.563 113.677 254.791C113.757 255.018 113.788 255.26 113.77 255.5V259.31C113.788 259.55 113.757 259.792 113.677 260.019C113.598 260.247 113.472 260.455 113.308 260.632C113.144 260.809 112.946 260.95 112.725 261.046C112.504 261.142 112.266 261.192 112.025 261.192C111.784 261.192 111.546 261.142 111.325 261.046C111.104 260.95 110.905 260.809 110.742 260.632C110.578 260.455 110.452 260.247 110.373 260.019C110.293 259.792 110.262 259.55 110.28 259.31V255.5ZM111.43 259.39C111.43 259.91 111.66 260.11 112.02 260.11C112.38 260.11 112.62 259.91 112.62 259.39V255.39C112.62 254.87 112.39 254.67 112.02 254.67C111.65 254.67 111.43 254.87 111.43 255.39V259.39Z" fill="#263238"/>
<path d="M111.08 275.61C111.369 275.646 111.66 275.571 111.896 275.4C112.132 275.229 112.294 274.976 112.35 274.69H113.12V282H112V276.41H111.11L111.08 275.61Z" fill="#263238"/>
<path d="M111.08 296.56C111.369 296.596 111.66 296.521 111.896 296.35C112.132 296.179 112.294 295.926 112.35 295.64H113.12V303H112V297.41H111.11L111.08 296.56Z" fill="#263238"/>
<path d="M110.28 307.87C110.262 307.63 110.293 307.388 110.373 307.161C110.452 306.933 110.578 306.725 110.742 306.548C110.905 306.371 111.104 306.23 111.325 306.134C111.546 306.038 111.784 305.988 112.025 305.988C112.266 305.988 112.504 306.038 112.725 306.134C112.946 306.23 113.144 306.371 113.308 306.548C113.472 306.725 113.598 306.933 113.677 307.161C113.757 307.388 113.788 307.63 113.77 307.87V311.68C113.788 311.92 113.757 312.162 113.677 312.389C113.598 312.617 113.472 312.825 113.308 313.002C113.144 313.179 112.946 313.32 112.725 313.416C112.504 313.512 112.266 313.562 112.025 313.562C111.784 313.562 111.546 313.512 111.325 313.416C111.104 313.32 110.905 313.179 110.742 313.002C110.578 312.825 110.452 312.617 110.373 312.389C110.293 312.162 110.262 311.92 110.28 311.68V307.87ZM111.43 311.76C111.43 312.28 111.66 312.48 112.02 312.48C112.38 312.48 112.62 312.28 112.62 311.76V307.76C112.62 307.23 112.39 307.04 112.02 307.04C111.65 307.04 111.43 307.23 111.43 307.76V311.76Z" fill="#263238"/>
<path d="M111.08 338.45C111.369 338.486 111.66 338.411 111.896 338.24C112.132 338.069 112.294 337.816 112.35 337.53H113.12V344.86H112V339.27H111.11L111.08 338.45Z" fill="#263238"/>
<path d="M111.08 348.93C111.369 348.966 111.66 348.891 111.896 348.72C112.132 348.549 112.294 348.296 112.35 348.01H113.12V355.33H112V349.74H111.11L111.08 348.93Z" fill="#263238"/>
<path d="M111.08 359.4C111.369 359.436 111.66 359.361 111.896 359.19C112.132 359.019 112.294 358.766 112.35 358.48H113.12V365.81H112V360.22H111.11L111.08 359.4Z" fill="#263238"/>
<path d="M306.11 3.60999C306.11 3.14586 306.294 2.70074 306.623 2.37255C306.951 2.04436 307.396 1.85999 307.86 1.85999C308.324 1.85999 308.769 2.04436 309.097 2.37255C309.426 2.70074 309.61 3.14586 309.61 3.60999V7.41998C309.61 7.88411 309.426 8.32923 309.097 8.65742C308.769 8.98561 308.324 9.16998 307.86 9.16998C307.396 9.16998 306.951 8.98561 306.623 8.65742C306.294 8.32923 306.11 7.88411 306.11 7.41998V3.60999ZM307.26 7.48999C307.26 8.00999 307.49 8.20998 307.86 8.20998C308.23 8.20998 308.45 8.00999 308.45 7.48999V3.48999C308.45 2.96999 308.22 2.76999 307.86 2.76999C307.5 2.76999 307.26 2.96999 307.26 3.48999V7.48999Z" fill="#263238"/>
<path d="M306.11 14.08C306.11 13.6159 306.294 13.1707 306.623 12.8425C306.951 12.5144 307.396 12.33 307.86 12.33C308.324 12.33 308.769 12.5144 309.097 12.8425C309.426 13.1707 309.61 13.6159 309.61 14.08V17.89C309.61 18.3541 309.426 18.7992 309.097 19.1274C308.769 19.4556 308.324 19.64 307.86 19.64C307.396 19.64 306.951 19.4556 306.623 19.1274C306.294 18.7992 306.11 18.3541 306.11 17.89V14.08ZM307.26 18C307.26 18.53 307.49 18.73 307.86 18.73C308.23 18.73 308.45 18.53 308.45 18V14C308.45 13.47 308.22 13.27 307.86 13.27C307.5 13.27 307.26 13.47 307.26 14V18Z" fill="#263238"/>
<path d="M306.92 44.66C307.208 44.6955 307.498 44.6202 307.732 44.4493C307.966 44.2784 308.126 44.0248 308.18 43.74H309V51.07H307.85V45.48H306.96L306.92 44.66Z" fill="#263238"/>
<path d="M306.92 55.14C307.208 55.1755 307.498 55.1002 307.732 54.9293C307.966 54.7584 308.126 54.5048 308.18 54.22H309V61.54H307.85V56H306.96L306.92 55.14Z" fill="#263238"/>
<path d="M306.11 87.39C306.11 86.9259 306.294 86.4807 306.623 86.1525C306.951 85.8244 307.396 85.64 307.86 85.64C308.324 85.64 308.769 85.8244 309.097 86.1525C309.426 86.4807 309.61 86.9259 309.61 87.39V91.2C309.61 91.6641 309.426 92.1092 309.097 92.4374C308.769 92.7656 308.324 92.95 307.86 92.95C307.396 92.95 306.951 92.7656 306.623 92.4374C306.294 92.1092 306.11 91.6641 306.11 91.2V87.39ZM307.26 91.28C307.26 91.8 307.49 92 307.86 92C308.23 92 308.45 91.8 308.45 91.28V87.28C308.45 86.76 308.22 86.56 307.86 86.56C307.5 86.56 307.26 86.76 307.26 87.28V91.28Z" fill="#263238"/>
<path d="M306.11 108.34C306.11 107.876 306.294 107.431 306.623 107.103C306.951 106.774 307.396 106.59 307.86 106.59C308.324 106.59 308.769 106.774 309.097 107.103C309.426 107.431 309.61 107.876 309.61 108.34V112.15C309.61 112.614 309.426 113.059 309.097 113.387C308.769 113.716 308.324 113.9 307.86 113.9C307.396 113.9 306.951 113.716 306.623 113.387C306.294 113.059 306.11 112.614 306.11 112.15V108.34ZM307.26 112.22C307.26 112.75 307.49 112.95 307.86 112.95C308.23 112.95 308.45 112.75 308.45 112.22V108.27C308.45 107.74 308.22 107.55 307.86 107.55C307.5 107.55 307.26 107.74 307.26 108.27V112.22Z" fill="#263238"/>
<path d="M287.43 24.55C287.43 24.0859 287.614 23.6407 287.943 23.3126C288.271 22.9844 288.716 22.8 289.18 22.8C289.644 22.8 290.089 22.9844 290.417 23.3126C290.746 23.6407 290.93 24.0859 290.93 24.55V28.36C290.93 28.8241 290.746 29.2692 290.417 29.5974C290.089 29.9256 289.644 30.11 289.18 30.11C288.716 30.11 288.271 29.9256 287.943 29.5974C287.614 29.2692 287.43 28.8241 287.43 28.36V24.55ZM288.58 28.44C288.58 28.96 288.81 29.16 289.18 29.16C289.55 29.16 289.77 28.96 289.77 28.44V24.44C289.77 23.92 289.54 23.72 289.18 23.72C288.82 23.72 288.58 23.92 288.58 24.44V28.44Z" fill="#263238"/>
<path d="M287.43 35C287.43 34.5359 287.614 34.0908 287.943 33.7626C288.271 33.4344 288.716 33.25 289.18 33.25C289.644 33.25 290.089 33.4344 290.417 33.7626C290.746 34.0908 290.93 34.5359 290.93 35V38.81C290.93 39.2741 290.746 39.7193 290.417 40.0474C290.089 40.3756 289.644 40.56 289.18 40.56C288.716 40.56 288.271 40.3756 287.943 40.0474C287.614 39.7193 287.43 39.2741 287.43 38.81V35ZM288.58 38.88C288.58 39.4 288.81 39.6 289.18 39.6C289.55 39.6 289.77 39.4 289.77 38.88V35C289.77 34.48 289.54 34.28 289.18 34.28C288.82 34.28 288.58 34.48 288.58 35V38.88Z" fill="#263238"/>
<path d="M287.43 45.5C287.43 45.0359 287.614 44.5907 287.943 44.2626C288.271 43.9344 288.716 43.75 289.18 43.75C289.644 43.75 290.089 43.9344 290.417 44.2626C290.746 44.5907 290.93 45.0359 290.93 45.5V49.31C290.93 49.7741 290.746 50.2192 290.417 50.5474C290.089 50.8756 289.644 51.06 289.18 51.06C288.716 51.06 288.271 50.8756 287.943 50.5474C287.614 50.2192 287.43 49.7741 287.43 49.31V45.5ZM288.58 49.38C288.58 49.91 288.81 50.11 289.18 50.11C289.55 50.11 289.77 49.91 289.77 49.38V45.43C289.77 44.9 289.54 44.7 289.18 44.7C288.82 44.7 288.58 44.9 288.58 45.43V49.38Z" fill="#263238"/>
<path d="M288.24 55.14C288.528 55.1755 288.818 55.1002 289.052 54.9293C289.286 54.7584 289.446 54.5048 289.5 54.22H290.28V61.54H289.13V56H288.24V55.14Z" fill="#263238"/>
<path d="M288.24 76.08C288.528 76.1155 288.818 76.0402 289.052 75.8693C289.286 75.6984 289.446 75.4448 289.5 75.16H290.28V82.49H289.13V76.9H288.24V76.08Z" fill="#263238"/>
<path d="M288.24 86.56C288.528 86.5955 288.818 86.5202 289.052 86.3493C289.286 86.1784 289.446 85.9248 289.5 85.64H290.28V93H289.13V87.41H288.24V86.56Z" fill="#263238"/>
<path d="M287.43 108.34C287.43 107.876 287.614 107.431 287.943 107.103C288.271 106.774 288.716 106.59 289.18 106.59C289.644 106.59 290.089 106.774 290.417 107.103C290.746 107.431 290.93 107.876 290.93 108.34V112.15C290.93 112.614 290.746 113.059 290.417 113.387C290.089 113.716 289.644 113.9 289.18 113.9C288.716 113.9 288.271 113.716 287.943 113.387C287.614 113.059 287.43 112.614 287.43 112.15V108.34ZM288.58 112.22C288.58 112.75 288.81 112.95 289.18 112.95C289.55 112.95 289.77 112.75 289.77 112.22V108.27C289.77 107.74 289.54 107.55 289.18 107.55C288.82 107.55 288.58 107.74 288.58 108.27V112.22Z" fill="#263238"/>
<path d="M288.24 118C288.528 118.036 288.818 117.96 289.052 117.789C289.286 117.618 289.446 117.365 289.5 117.08H290.28V124.4H289.13V118.81H288.24V118Z" fill="#263238"/>
<path d="M299.88 3.60999C299.88 3.14586 300.064 2.70074 300.393 2.37255C300.721 2.04436 301.166 1.85999 301.63 1.85999C302.094 1.85999 302.539 2.04436 302.867 2.37255C303.196 2.70074 303.38 3.14586 303.38 3.60999V7.41998C303.38 7.88411 303.196 8.32923 302.867 8.65742C302.539 8.98561 302.094 9.16998 301.63 9.16998C301.166 9.16998 300.721 8.98561 300.393 8.65742C300.064 8.32923 299.88 7.88411 299.88 7.41998V3.60999ZM301 7.48999C301 8.00999 301.23 8.20998 301.59 8.20998C301.95 8.20998 302.19 8.00999 302.19 7.48999V3.48999C302.19 2.96999 301.96 2.76999 301.59 2.76999C301.22 2.76999 301 2.96999 301 3.48999V7.48999Z" fill="#263238"/>
<path d="M300.69 13.24C300.979 13.2758 301.27 13.2008 301.506 13.03C301.742 12.8593 301.904 12.6056 301.96 12.32H302.73V19.65H301.58V14.06H300.69V13.24Z" fill="#263238"/>
<path d="M299.88 24.55C299.88 24.0859 300.064 23.6407 300.393 23.3126C300.721 22.9844 301.166 22.8 301.63 22.8C302.094 22.8 302.539 22.9844 302.867 23.3126C303.196 23.6407 303.38 24.0859 303.38 24.55V28.36C303.38 28.8241 303.196 29.2692 302.867 29.5974C302.539 29.9256 302.094 30.11 301.63 30.11C301.166 30.11 300.721 29.9256 300.393 29.5974C300.064 29.2692 299.88 28.8241 299.88 28.36V24.55ZM301 28.44C301 28.96 301.23 29.16 301.59 29.16C301.95 29.16 302.19 28.96 302.19 28.44V24.44C302.19 23.92 301.96 23.72 301.59 23.72C301.22 23.72 301 23.92 301 24.44V28.44Z" fill="#263238"/>
<path d="M300.69 34.19C300.979 34.2258 301.27 34.1508 301.506 33.98C301.742 33.8093 301.904 33.5556 301.96 33.27H302.73V40.6H301.58V35H300.69V34.19Z" fill="#263238"/>
<path d="M300.69 44.66C300.979 44.6958 301.27 44.6208 301.506 44.45C301.742 44.2793 301.904 44.0256 301.96 43.74H302.73V51.07H301.58V45.48H300.69V44.66Z" fill="#263238"/>
<path d="M300.69 55.14C300.979 55.1758 301.27 55.1008 301.506 54.93C301.742 54.7593 301.904 54.5056 301.96 54.22H302.73V61.54H301.58V56H300.69V55.14Z" fill="#263238"/>
<path d="M299.88 66.45C299.88 65.9859 300.064 65.5407 300.393 65.2125C300.721 64.8844 301.166 64.7 301.63 64.7C302.094 64.7 302.539 64.8844 302.867 65.2125C303.196 65.5407 303.38 65.9859 303.38 66.45V70.26C303.38 70.7241 303.196 71.1692 302.867 71.4974C302.539 71.8256 302.094 72.01 301.63 72.01C301.166 72.01 300.721 71.8256 300.393 71.4974C300.064 71.1692 299.88 70.7241 299.88 70.26V66.45ZM301 70.33C301 70.85 301.23 71.05 301.59 71.05C301.95 71.05 302.19 70.85 302.19 70.33V66.33C302.19 65.81 301.96 65.61 301.59 65.61C301.22 65.61 301 65.81 301 66.33V70.33Z" fill="#263238"/>
<path d="M299.88 76.92C299.88 76.4559 300.064 76.0107 300.393 75.6825C300.721 75.3544 301.166 75.17 301.63 75.17C302.094 75.17 302.539 75.3544 302.867 75.6825C303.196 76.0107 303.38 76.4559 303.38 76.92V80.73C303.38 81.1941 303.196 81.6392 302.867 81.9674C302.539 82.2956 302.094 82.48 301.63 82.48C301.166 82.48 300.721 82.2956 300.393 81.9674C300.064 81.6392 299.88 81.1941 299.88 80.73V76.92ZM301 80.8C301 81.33 301.23 81.53 301.59 81.53C301.95 81.53 302.19 81.33 302.19 80.8V76.8C302.19 76.27 301.96 76.08 301.59 76.08C301.22 76.08 301 76.27 301 76.8V80.8Z" fill="#263238"/>
<path d="M294.46 13.24C294.749 13.2758 295.04 13.2008 295.276 13.03C295.512 12.8593 295.674 12.6056 295.73 12.32H296.5V19.65H295.35V14.06H294.46V13.24Z" fill="#263238"/>
<path d="M293.66 24.55C293.642 24.3097 293.673 24.0683 293.753 23.8408C293.832 23.6133 293.958 23.4047 294.122 23.228C294.285 23.0513 294.484 22.9103 294.705 22.8139C294.926 22.7175 295.164 22.6678 295.405 22.6678C295.646 22.6678 295.884 22.7175 296.105 22.8139C296.326 22.9103 296.525 23.0513 296.688 23.228C296.852 23.4047 296.978 23.6133 297.057 23.8408C297.137 24.0683 297.168 24.3097 297.15 24.55V28.36C297.168 28.6002 297.137 28.8417 297.057 29.0692C296.978 29.2966 296.852 29.5053 296.688 29.682C296.525 29.8587 296.326 29.9996 296.105 30.096C295.884 30.1924 295.646 30.2422 295.405 30.2422C295.164 30.2422 294.926 30.1924 294.705 30.096C294.484 29.9996 294.285 29.8587 294.122 29.682C293.958 29.5053 293.832 29.2966 293.753 29.0692C293.673 28.8417 293.642 28.6002 293.66 28.36V24.55ZM294.81 28.44C294.81 28.96 295.04 29.16 295.4 29.16C295.76 29.16 296 28.96 296 28.44V24.44C296 23.92 295.77 23.72 295.4 23.72C295.03 23.72 294.81 23.92 294.81 24.44V28.44Z" fill="#263238"/>
<path d="M293.66 35C293.642 34.7597 293.673 34.5183 293.753 34.2908C293.832 34.0633 293.958 33.8547 294.122 33.678C294.285 33.5013 294.484 33.3604 294.705 33.264C294.926 33.1676 295.164 33.1178 295.405 33.1178C295.646 33.1178 295.884 33.1676 296.105 33.264C296.326 33.3604 296.525 33.5013 296.688 33.678C296.852 33.8547 296.978 34.0633 297.057 34.2908C297.137 34.5183 297.168 34.7597 297.15 35V38.81C297.168 39.0503 297.137 39.2917 297.057 39.5192C296.978 39.7467 296.852 39.9553 296.688 40.132C296.525 40.3087 296.326 40.4496 296.105 40.546C295.884 40.6424 295.646 40.6922 295.405 40.6922C295.164 40.6922 294.926 40.6424 294.705 40.546C294.484 40.4496 294.285 40.3087 294.122 40.132C293.958 39.9553 293.832 39.7467 293.753 39.5192C293.673 39.2917 293.642 39.0503 293.66 38.81V35ZM294.81 38.88C294.81 39.4 295.04 39.6 295.4 39.6C295.76 39.6 296 39.4 296 38.88V35C296 34.48 295.77 34.28 295.4 34.28C295.03 34.28 294.81 34.48 294.81 35V38.88Z" fill="#263238"/>
<path d="M294.46 44.66C294.749 44.6958 295.04 44.6208 295.276 44.45C295.512 44.2793 295.674 44.0256 295.73 43.74H296.5V51.07H295.35V45.48H294.46V44.66Z" fill="#263238"/>
<path d="M294.46 65.61C294.749 65.6458 295.04 65.5708 295.276 65.4C295.512 65.2293 295.674 64.9756 295.73 64.69H296.5V72H295.35V66.43H294.46V65.61Z" fill="#263238"/>
<path d="M294.46 76.08C294.749 76.1158 295.04 76.0408 295.276 75.87C295.512 75.6993 295.674 75.4456 295.73 75.16H296.5V82.49H295.35V76.9H294.46V76.08Z" fill="#263238"/>
<path d="M294.46 86.56C294.749 86.5958 295.04 86.5208 295.276 86.35C295.512 86.1793 295.674 85.9256 295.73 85.64H296.5V93H295.35V87.41H294.46V86.56Z" fill="#263238"/>
<path d="M13 119.57C13 119.106 13.1844 118.661 13.5126 118.333C13.8408 118.004 14.2859 117.82 14.75 117.82C15.2141 117.82 15.6592 118.004 15.9874 118.333C16.3156 118.661 16.5 119.106 16.5 119.57V123.39C16.5 123.854 16.3156 124.299 15.9874 124.627C15.6592 124.956 15.2141 125.14 14.75 125.14C14.2859 125.14 13.8408 124.956 13.5126 124.627C13.1844 124.299 13 123.854 13 123.39V119.57ZM14.15 123.46C14.15 123.98 14.38 124.18 14.75 124.18C15.12 124.18 15.34 123.98 15.34 123.46V119.46C15.34 118.94 15.11 118.74 14.75 118.74C14.39 118.74 14.15 118.94 14.15 119.46V123.46Z" fill="#263238"/>
<path d="M13 130.05C13 129.586 13.1844 129.141 13.5126 128.813C13.8408 128.484 14.2859 128.3 14.75 128.3C15.2141 128.3 15.6592 128.484 15.9874 128.813C16.3156 129.141 16.5 129.586 16.5 130.05V133.86C16.5 134.324 16.3156 134.769 15.9874 135.097C15.6592 135.426 15.2141 135.61 14.75 135.61C14.2859 135.61 13.8408 135.426 13.5126 135.097C13.1844 134.769 13 134.324 13 133.86V130.05ZM14.15 133.93C14.15 134.46 14.38 134.65 14.75 134.65C15.12 134.65 15.34 134.46 15.34 133.93V129.93C15.34 129.41 15.11 129.21 14.75 129.21C14.39 129.21 14.15 129.41 14.15 129.93V133.93Z" fill="#263238"/>
<path d="M13.8 139.68C14.0876 139.716 14.378 139.64 14.612 139.469C14.8461 139.298 15.0062 139.045 15.06 138.76H15.84V146.09H14.69V140.5H13.8V139.68Z" fill="#263238"/>
<path d="M13 151C13 150.536 13.1844 150.091 13.5126 149.763C13.8408 149.434 14.2859 149.25 14.75 149.25C15.2141 149.25 15.6592 149.434 15.9874 149.763C16.3156 150.091 16.5 150.536 16.5 151V154.82C16.5 155.284 16.3156 155.729 15.9874 156.057C15.6592 156.386 15.2141 156.57 14.75 156.57C14.2859 156.57 13.8408 156.386 13.5126 156.057C13.1844 155.729 13 155.284 13 154.82V151ZM14.15 154.89C14.15 155.41 14.38 155.61 14.75 155.61C15.12 155.61 15.34 155.41 15.34 154.89V150.89C15.34 150.37 15.11 150.17 14.75 150.17C14.39 150.17 14.15 150.37 14.15 150.89V154.89Z" fill="#263238"/>
<path d="M13.8 160.63C14.0876 160.666 14.378 160.59 14.612 160.419C14.8461 160.248 15.0062 159.995 15.06 159.71H15.84V167H14.69V161.41H13.8V160.63Z" fill="#263238"/>
<path d="M13 171.94C13 171.476 13.1844 171.031 13.5126 170.703C13.8408 170.374 14.2859 170.19 14.75 170.19C15.2141 170.19 15.6592 170.374 15.9874 170.703C16.3156 171.031 16.5 171.476 16.5 171.94V175.75C16.5 176.214 16.3156 176.659 15.9874 176.987C15.6592 177.316 15.2141 177.5 14.75 177.5C14.2859 177.5 13.8408 177.316 13.5126 176.987C13.1844 176.659 13 176.214 13 175.75V171.94ZM14.15 175.83C14.15 176.35 14.38 176.55 14.75 176.55C15.12 176.55 15.34 176.35 15.34 175.83V171.83C15.34 171.3 15.11 171.11 14.75 171.11C14.39 171.11 14.15 171.3 14.15 171.83V175.83Z" fill="#263238"/>
<path d="M13.8 181.58C14.0876 181.616 14.378 181.54 14.612 181.369C14.8461 181.198 15.0062 180.945 15.06 180.66H15.84V188H14.69V182.41H13.8V181.58Z" fill="#263238"/>
<path d="M13 192.89C13 192.426 13.1844 191.981 13.5126 191.653C13.8408 191.324 14.2859 191.14 14.75 191.14C15.2141 191.14 15.6592 191.324 15.9874 191.653C16.3156 191.981 16.5 192.426 16.5 192.89V196.7C16.5 197.164 16.3156 197.609 15.9874 197.937C15.6592 198.266 15.2141 198.45 14.75 198.45C14.2859 198.45 13.8408 198.266 13.5126 197.937C13.1844 197.609 13 197.164 13 196.7V192.89ZM14.15 196.77C14.15 197.3 14.38 197.49 14.75 197.49C15.12 197.49 15.34 197.3 15.34 196.77V192.77C15.34 192.25 15.11 192.05 14.75 192.05C14.39 192.05 14.15 192.25 14.15 192.77V196.77Z" fill="#263238"/>
<path d="M13 203.36C13 202.896 13.1844 202.451 13.5126 202.123C13.8408 201.794 14.2859 201.61 14.75 201.61C15.2141 201.61 15.6592 201.794 15.9874 202.123C16.3156 202.451 16.5 202.896 16.5 203.36V207.17C16.5 207.634 16.3156 208.079 15.9874 208.407C15.6592 208.736 15.2141 208.92 14.75 208.92C14.2859 208.92 13.8408 208.736 13.5126 208.407C13.1844 208.079 13 207.634 13 207.17V203.36ZM14.15 207.25C14.15 207.77 14.38 207.97 14.75 207.97C15.12 207.97 15.34 207.77 15.34 207.25V203.25C15.34 202.73 15.11 202.53 14.75 202.53C14.39 202.53 14.15 202.73 14.15 203.25V207.25Z" fill="#263238"/>
<path d="M13 213.84C13 213.376 13.1844 212.931 13.5126 212.603C13.8408 212.274 14.2859 212.09 14.75 212.09C15.2141 212.09 15.6592 212.274 15.9874 212.603C16.3156 212.931 16.5 213.376 16.5 213.84V217.65C16.5 218.114 16.3156 218.559 15.9874 218.887C15.6592 219.216 15.2141 219.4 14.75 219.4C14.2859 219.4 13.8408 219.216 13.5126 218.887C13.1844 218.559 13 218.114 13 217.65V213.84ZM14.15 217.72C14.15 218.24 14.38 218.44 14.75 218.44C15.12 218.44 15.34 218.24 15.34 217.72V213.72C15.34 213.2 15.11 213 14.75 213C14.39 213 14.15 213.2 14.15 213.72V217.72Z" fill="#263238"/>
<path d="M13.8 233.94C14.088 233.978 14.3796 233.904 14.6142 233.732C14.8489 233.561 15.0085 233.306 15.06 233.02H15.84V240.35H14.69V234.76H13.8V233.94Z" fill="#263238"/>
<path d="M20 160.63C20.2888 160.666 20.5805 160.591 20.8161 160.42C21.0518 160.249 21.214 159.996 21.27 159.71H22.04V167H20.91V161.41H20V160.63Z" fill="#263238"/>
<path d="M20 171.1C20.2888 171.136 20.5805 171.061 20.8161 170.89C21.0518 170.719 21.214 170.466 21.27 170.18H22.04V177.51H20.91V171.92H20V171.1Z" fill="#263238"/>
<path d="M19.22 182.41C19.2018 182.17 19.2334 181.928 19.3128 181.701C19.3923 181.473 19.5179 181.265 19.6817 181.088C19.8455 180.911 20.044 180.77 20.2649 180.674C20.4857 180.578 20.724 180.528 20.965 180.528C21.2059 180.528 21.4443 180.578 21.6651 180.674C21.886 180.77 22.0845 180.911 22.2483 181.088C22.4121 181.265 22.5377 181.473 22.6171 181.701C22.6966 181.928 22.7282 182.17 22.71 182.41V186.23C22.7282 186.47 22.6966 186.712 22.6171 186.939C22.5377 187.167 22.4121 187.375 22.2483 187.552C22.0845 187.729 21.886 187.87 21.6651 187.966C21.4443 188.062 21.2059 188.112 20.965 188.112C20.724 188.112 20.4857 188.062 20.2649 187.966C20.044 187.87 19.8455 187.729 19.6817 187.552C19.5179 187.375 19.3923 187.167 19.3128 186.939C19.2334 186.712 19.2018 186.47 19.22 186.23V182.41ZM20.37 186.3C20.37 186.82 20.6 187.02 20.96 187.02C21.32 187.02 21.56 186.82 21.56 186.3V182.3C21.56 181.78 21.33 181.58 20.96 181.58C20.59 181.58 20.37 181.78 20.37 182.3V186.3Z" fill="#263238"/>
<path d="M19.22 192.89C19.2018 192.65 19.2334 192.408 19.3128 192.181C19.3923 191.953 19.5179 191.745 19.6817 191.568C19.8455 191.391 20.044 191.25 20.2649 191.154C20.4857 191.058 20.724 191.008 20.965 191.008C21.2059 191.008 21.4443 191.058 21.6651 191.154C21.886 191.25 22.0845 191.391 22.2483 191.568C22.4121 191.745 22.5377 191.953 22.6171 192.181C22.6966 192.408 22.7282 192.65 22.71 192.89V196.7C22.7282 196.94 22.6966 197.182 22.6171 197.409C22.5377 197.637 22.4121 197.845 22.2483 198.022C22.0845 198.199 21.886 198.34 21.6651 198.436C21.4443 198.532 21.2059 198.582 20.965 198.582C20.724 198.582 20.4857 198.532 20.2649 198.436C20.044 198.34 19.8455 198.199 19.6817 198.022C19.5179 197.845 19.3923 197.637 19.3128 197.409C19.2334 197.182 19.2018 196.94 19.22 196.7V192.89ZM20.37 196.77C20.37 197.3 20.6 197.49 20.96 197.49C21.32 197.49 21.56 197.3 21.56 196.77V192.77C21.56 192.25 21.33 192.05 20.96 192.05C20.59 192.05 20.37 192.25 20.37 192.77V196.77Z" fill="#263238"/>
<path d="M20 202.52C20.2892 202.558 20.5821 202.484 20.8183 202.313C21.0546 202.142 21.2162 201.887 21.27 201.6H22.04V208.93H20.91V203.34H20V202.52Z" fill="#263238"/>
<path d="M20 223.47C20.2888 223.506 20.5805 223.431 20.8161 223.26C21.0518 223.089 21.214 222.836 21.27 222.55H22.04V229.88H20.91V224.29H20V223.47Z" fill="#263238"/>
<path d="M6.76001 151C6.76001 150.536 6.94439 150.091 7.27258 149.763C7.60076 149.434 8.04588 149.25 8.51001 149.25C8.97414 149.25 9.41926 149.434 9.74745 149.763C10.0756 150.091 10.26 150.536 10.26 151V154.82C10.26 155.284 10.0756 155.729 9.74745 156.057C9.41926 156.386 8.97414 156.57 8.51001 156.57C8.04588 156.57 7.60076 156.386 7.27258 156.057C6.94439 155.729 6.76001 155.284 6.76001 154.82V151ZM7.92001 154.89C7.92001 155.41 8.15001 155.61 8.51001 155.61C8.87001 155.61 9.11001 155.41 9.11001 154.89V150.89C9.11001 150.37 8.88001 150.17 8.51001 150.17C8.14001 150.17 7.92001 150.37 7.92001 150.89V154.89Z" fill="#263238"/>
<path d="M7.57001 160.63C7.85882 160.666 8.15047 160.591 8.38615 160.42C8.62183 160.249 8.78401 159.996 8.84001 159.71H9.61001V167H8.46001V161.41H7.57001V160.63Z" fill="#263238"/>
<path d="M7.57001 171.1C7.85882 171.136 8.15047 171.061 8.38615 170.89C8.62183 170.719 8.78401 170.466 8.84001 170.18H9.61001V177.51H8.46001V171.92H7.57001V171.1Z" fill="#263238"/>
<path d="M6.76001 182.41C6.76001 181.946 6.94439 181.501 7.27258 181.173C7.60076 180.844 8.04588 180.66 8.51001 180.66C8.97414 180.66 9.41926 180.844 9.74745 181.173C10.0756 181.501 10.26 181.946 10.26 182.41V186.23C10.26 186.694 10.0756 187.139 9.74745 187.467C9.41926 187.796 8.97414 187.98 8.51001 187.98C8.04588 187.98 7.60076 187.796 7.27258 187.467C6.94439 187.139 6.76001 186.694 6.76001 186.23V182.41ZM7.92001 186.3C7.92001 186.82 8.15001 187.02 8.51001 187.02C8.87001 187.02 9.11001 186.82 9.11001 186.3V182.3C9.11001 181.78 8.88001 181.58 8.51001 181.58C8.14001 181.58 7.92001 181.78 7.92001 182.3V186.3Z" fill="#263238"/>
<path d="M7.57001 192.05C7.85882 192.086 8.15047 192.011 8.38615 191.84C8.62183 191.669 8.78401 191.416 8.84001 191.13H9.61001V198.46H8.46001V192.87H7.57001V192.05Z" fill="#263238"/>
<path d="M6.76001 203.36C6.76001 202.896 6.94439 202.451 7.27258 202.123C7.60076 201.794 8.04588 201.61 8.51001 201.61C8.97414 201.61 9.41926 201.794 9.74745 202.123C10.0756 202.451 10.26 202.896 10.26 203.36V207.17C10.26 207.634 10.0756 208.079 9.74745 208.407C9.41926 208.736 8.97414 208.92 8.51001 208.92C8.04588 208.92 7.60076 208.736 7.27258 208.407C6.94439 208.079 6.76001 207.634 6.76001 207.17V203.36ZM7.92001 207.25C7.92001 207.77 8.15001 207.97 8.51001 207.97C8.87001 207.97 9.11001 207.77 9.11001 207.25V203.25C9.11001 202.73 8.88001 202.53 8.51001 202.53C8.14001 202.53 7.92001 202.73 7.92001 203.25V207.25Z" fill="#263238"/>
<path d="M0.540004 130.05C0.521803 129.81 0.553414 129.568 0.632857 129.341C0.7123 129.113 0.837864 128.905 1.00168 128.728C1.1655 128.551 1.36404 128.41 1.58487 128.314C1.8057 128.218 2.04405 128.168 2.285 128.168C2.52595 128.168 2.76431 128.218 2.98514 128.314C3.20597 128.41 3.40451 128.551 3.56833 128.728C3.73215 128.905 3.85771 129.113 3.93715 129.341C4.01659 129.568 4.0482 129.81 4.03 130.05V133.86C4.0482 134.1 4.01659 134.342 3.93715 134.569C3.85771 134.797 3.73215 135.005 3.56833 135.182C3.40451 135.359 3.20597 135.5 2.98514 135.596C2.76431 135.692 2.52595 135.742 2.285 135.742C2.04405 135.742 1.8057 135.692 1.58487 135.596C1.36404 135.5 1.1655 135.359 1.00168 135.182C0.837864 135.005 0.7123 134.797 0.632857 134.569C0.553414 134.342 0.521803 134.1 0.540004 133.86V130.05ZM1.69 133.93C1.69 134.46 1.92 134.65 2.28 134.65C2.64 134.65 2.88 134.46 2.88 133.93V129.93C2.88 129.4 2.65 129.2 2.28 129.2C1.91 129.2 1.69 129.4 1.69 129.93V133.93Z" fill="#263238"/>
<path d="M1.34 150.16C1.62881 150.196 1.92045 150.121 2.15614 149.95C2.39182 149.779 2.554 149.526 2.61 149.24H3.38V156.56H2.23V151H1.34V150.16Z" fill="#263238"/>
<path d="M0.540004 161.47C0.521803 161.23 0.553414 160.988 0.632857 160.761C0.7123 160.533 0.837864 160.325 1.00168 160.148C1.1655 159.971 1.36404 159.83 1.58487 159.734C1.8057 159.638 2.04405 159.588 2.285 159.588C2.52595 159.588 2.76431 159.638 2.98514 159.734C3.20597 159.83 3.40451 159.971 3.56833 160.148C3.73215 160.325 3.85771 160.533 3.93715 160.761C4.01659 160.988 4.0482 161.23 4.03 161.47V165.28C4.0482 165.52 4.01659 165.762 3.93715 165.989C3.85771 166.217 3.73215 166.425 3.56833 166.602C3.40451 166.779 3.20597 166.92 2.98514 167.016C2.76431 167.112 2.52595 167.162 2.285 167.162C2.04405 167.162 1.8057 167.112 1.58487 167.016C1.36404 166.92 1.1655 166.779 1.00168 166.602C0.837864 166.425 0.7123 166.217 0.632857 165.989C0.553414 165.762 0.521803 165.52 0.540004 165.28V161.47ZM1.69 165.35C1.69 165.88 1.92 166.07 2.28 166.07C2.64 166.07 2.88 165.88 2.88 165.35V161.4C2.88 160.87 2.65 160.67 2.28 160.67C1.91 160.67 1.69 160.87 1.69 161.4V165.35Z" fill="#263238"/>
<path d="M0.540004 182.42C0.521803 182.18 0.553414 181.938 0.632857 181.711C0.7123 181.483 0.837864 181.275 1.00168 181.098C1.1655 180.921 1.36404 180.78 1.58487 180.684C1.8057 180.588 2.04405 180.538 2.285 180.538C2.52595 180.538 2.76431 180.588 2.98514 180.684C3.20597 180.78 3.40451 180.921 3.56833 181.098C3.73215 181.275 3.85771 181.483 3.93715 181.711C4.01659 181.938 4.0482 182.18 4.03 182.42V186.23C4.0482 186.47 4.01659 186.712 3.93715 186.939C3.85771 187.167 3.73215 187.375 3.56833 187.552C3.40451 187.729 3.20597 187.87 2.98514 187.966C2.76431 188.062 2.52595 188.112 2.285 188.112C2.04405 188.112 1.8057 188.062 1.58487 187.966C1.36404 187.87 1.1655 187.729 1.00168 187.552C0.837864 187.375 0.7123 187.167 0.632857 186.939C0.553414 186.712 0.521803 186.47 0.540004 186.23V182.42ZM1.69 186.3C1.69 186.82 1.92 187.02 2.28 187.02C2.64 187.02 2.88 186.82 2.88 186.3V182.3C2.88 181.78 2.65 181.58 2.28 181.58C1.91 181.58 1.69 181.78 1.69 182.3V186.3Z" fill="#263238"/>
<path d="M0.540004 192.89C0.521803 192.65 0.553414 192.408 0.632857 192.181C0.7123 191.953 0.837864 191.745 1.00168 191.568C1.1655 191.391 1.36404 191.25 1.58487 191.154C1.8057 191.058 2.04405 191.008 2.285 191.008C2.52595 191.008 2.76431 191.058 2.98514 191.154C3.20597 191.25 3.40451 191.391 3.56833 191.568C3.73215 191.745 3.85771 191.953 3.93715 192.181C4.01659 192.408 4.0482 192.65 4.03 192.89V196.7C4.0482 196.94 4.01659 197.182 3.93715 197.409C3.85771 197.637 3.73215 197.845 3.56833 198.022C3.40451 198.199 3.20597 198.34 2.98514 198.436C2.76431 198.532 2.52595 198.582 2.285 198.582C2.04405 198.582 1.8057 198.532 1.58487 198.436C1.36404 198.34 1.1655 198.199 1.00168 198.022C0.837864 197.845 0.7123 197.637 0.632857 197.409C0.553414 197.182 0.521803 196.94 0.540004 196.7V192.89ZM1.69 196.77C1.69 197.3 1.92 197.5 2.28 197.5C2.64 197.5 2.88 197.3 2.88 196.77V192.77C2.88 192.24 2.65 192.04 2.28 192.04C1.91 192.04 1.69 192.24 1.69 192.77V196.77Z" fill="#263238"/>
<path d="M0.540004 203.36C0.521803 203.12 0.553414 202.878 0.632857 202.651C0.7123 202.423 0.837864 202.215 1.00168 202.038C1.1655 201.861 1.36404 201.72 1.58487 201.624C1.8057 201.528 2.04405 201.478 2.285 201.478C2.52595 201.478 2.76431 201.528 2.98514 201.624C3.20597 201.72 3.40451 201.861 3.56833 202.038C3.73215 202.215 3.85771 202.423 3.93715 202.651C4.01659 202.878 4.0482 203.12 4.03 203.36V207.17C4.0482 207.41 4.01659 207.652 3.93715 207.879C3.85771 208.107 3.73215 208.315 3.56833 208.492C3.40451 208.669 3.20597 208.81 2.98514 208.906C2.76431 209.002 2.52595 209.052 2.285 209.052C2.04405 209.052 1.8057 209.002 1.58487 208.906C1.36404 208.81 1.1655 208.669 1.00168 208.492C0.837864 208.315 0.7123 208.107 0.632857 207.879C0.553414 207.652 0.521803 207.41 0.540004 207.17V203.36ZM1.69 207.25C1.69 207.77 1.92 207.97 2.28 207.97C2.64 207.97 2.88 207.77 2.88 207.25V203.25C2.88 202.73 2.65 202.53 2.28 202.53C1.91 202.53 1.69 202.73 1.69 203.25V207.25Z" fill="#263238"/>
<path d="M1.34 234C1.63025 234.035 1.92312 233.959 2.15905 233.786C2.39497 233.614 2.55622 233.357 2.61 233.07H3.38V240.4H2.23V234.81H1.34V234Z" fill="#263238"/>
<path d="M352.13 227.61C319.45 214.38 317.08 168.88 317.08 168.88H324.08V163.44C340.67 163.44 352.13 153.15 352.13 153.15C352.13 153.15 363.59 163.44 380.18 163.44V168.88H387.18C387.18 168.88 384.8 214.38 352.13 227.61Z" stroke="#335CC7" stroke-width="1.10721" stroke-linecap="round" stroke-linejoin="round"/>
<path d="M352.13 221.6C330.72 211.6 324.52 185.04 322.81 173.6H329.21V167.88C337.438 166.864 345.3 163.88 352.13 159.18C358.964 163.88 366.829 166.864 375.06 167.88V173.6H381.44C379.71 185 373.47 211.6 352.13 221.6Z" stroke="#335CC7" stroke-width="1.10721" stroke-linecap="round" stroke-linejoin="round"/>
<path d="M363.67 183.97H340.58C339.834 183.97 339.23 184.574 339.23 185.32V199.19C339.23 199.936 339.834 200.54 340.58 200.54H363.67C364.416 200.54 365.02 199.936 365.02 199.19V185.32C365.02 184.574 364.416 183.97 363.67 183.97Z" fill="#335CC7"/>
<path d="M352.59 170C351.336 169.939 350.082 170.133 348.905 170.571C347.728 171.009 346.652 171.681 345.742 172.547C344.833 173.413 344.108 174.454 343.613 175.608C343.117 176.762 342.861 178.004 342.86 179.26V180.26C342.86 180.345 342.877 180.43 342.909 180.509C342.942 180.588 342.99 180.659 343.05 180.72C343.111 180.78 343.182 180.828 343.261 180.861C343.34 180.893 343.425 180.91 343.51 180.91H345.85C345.935 180.91 346.02 180.893 346.099 180.861C346.178 180.828 346.249 180.78 346.31 180.72C346.37 180.659 346.418 180.588 346.451 180.509C346.483 180.43 346.5 180.345 346.5 180.26V179.49C346.482 178.041 347.011 176.638 347.983 175.563C348.955 174.487 350.296 173.818 351.74 173.69C352.508 173.639 353.279 173.747 354.004 174.006C354.729 174.265 355.393 174.67 355.955 175.195C356.517 175.721 356.966 176.357 357.273 177.063C357.58 177.769 357.739 178.53 357.74 179.3V180.3C357.74 180.472 357.808 180.638 357.93 180.76C358.052 180.882 358.218 180.95 358.39 180.95H360.73C360.902 180.95 361.068 180.882 361.19 180.76C361.312 180.638 361.38 180.472 361.38 180.3V179.6C361.424 177.178 360.537 174.832 358.901 173.045C357.266 171.259 355.006 170.169 352.59 170Z" fill="#335CC7"/>
<path d="M354.55 190.4C354.551 189.968 354.436 189.543 354.218 189.17C353.999 188.797 353.684 188.49 353.307 188.28C352.929 188.07 352.502 187.964 352.07 187.975C351.638 187.986 351.216 188.112 350.85 188.341C350.483 188.57 350.184 188.892 349.984 189.276C349.784 189.659 349.691 190.089 349.713 190.52C349.736 190.952 349.873 191.37 350.112 191.73C350.351 192.091 350.681 192.381 351.07 192.57L350.19 196.46H354.06L353.18 192.57C353.588 192.372 353.933 192.064 354.175 191.681C354.417 191.297 354.547 190.854 354.55 190.4V190.4Z" fill="white" stroke="#335CC7" stroke-width="1.10721" stroke-linecap="round" stroke-linejoin="round"/>
<path d="M248.88 19.12H169.92C168.086 19.12 166.6 20.6064 166.6 22.44V66.9C166.6 68.7336 168.086 70.22 169.92 70.22H248.88C250.714 70.22 252.2 68.7336 252.2 66.9V22.44C252.2 20.6064 250.714 19.12 248.88 19.12Z" stroke="#263238" stroke-width="1.10721" stroke-linecap="round" stroke-linejoin="round"/>
<path d="M174.57 63.08H199.34C199.975 63.08 200.49 62.5651 200.49 61.93V27.42C200.49 26.7849 199.975 26.27 199.34 26.27H174.57C173.935 26.27 173.42 26.7849 173.42 27.42V61.93C173.42 62.5651 173.935 63.08 174.57 63.08Z" stroke="#263238" stroke-width="1.10721" stroke-linecap="round" stroke-linejoin="round"/>
<path d="M187 63.07H174.64C174.316 63.07 174.006 62.9414 173.777 62.7127C173.549 62.4839 173.42 62.1735 173.42 61.85V53.35C173.42 53.35 180.33 53.05 181.49 51.58C182.65 50.11 181.37 47.81 181.37 47.81C180.95 47.29 180.85 43.6 180.85 43.6L180.43 43.49C180.02 43.39 179.43 40.33 179.43 39.18C179.429 38.8488 179.523 38.5241 179.7 38.2442C179.877 37.9644 180.13 37.7408 180.43 37.6C180.43 37.6 179.43 30.14 186.96 30.14C194.49 30.14 193.48 37.6 193.48 37.6C193.78 37.7408 194.033 37.9644 194.21 38.2442C194.387 38.5241 194.481 38.8488 194.48 39.18C194.48 40.33 193.94 43.39 193.48 43.49L193.06 43.6C193.06 43.6 192.96 47.29 192.54 47.81C192.54 47.81 191.25 50.11 192.42 51.58C193.59 53.05 200.49 53.35 200.49 53.35V61.85C200.491 62.0106 200.461 62.1698 200.4 62.3184C200.339 62.467 200.249 62.6021 200.136 62.7156C200.022 62.8292 199.887 62.919 199.738 62.9798C199.59 63.0407 199.431 63.0713 199.27 63.07H187Z" fill="#263238"/>
<path d="M243.62 63.25H226.8C226.466 63.2501 226.145 63.1194 225.905 62.8858C225.666 62.6522 225.528 62.3343 225.52 62V62C225.52 61.6605 225.655 61.3349 225.895 61.0949C226.135 60.8549 226.461 60.72 226.8 60.72H243.62C243.959 60.72 244.285 60.8549 244.525 61.0949C244.765 61.3349 244.9 61.6605 244.9 62V62C244.892 62.3343 244.754 62.6522 244.515 62.8858C244.275 63.1194 243.954 63.2501 243.62 63.25V63.25Z" fill="#263238"/>
<path d="M243.62 28.65H208.75C208.411 28.65 208.085 28.5151 207.845 28.2751C207.605 28.035 207.47 27.7095 207.47 27.37V27.37C207.47 27.0305 207.605 26.7049 207.845 26.4649C208.085 26.2249 208.411 26.09 208.75 26.09H243.62C243.959 26.09 244.285 26.2249 244.525 26.4649C244.765 26.7049 244.9 27.0305 244.9 27.37V27.37C244.9 27.7095 244.765 28.035 244.525 28.2751C244.285 28.5151 243.959 28.65 243.62 28.65V28.65Z" fill="#263238"/>
<path d="M228.75 37.3H208.75C208.58 37.3 208.412 37.2663 208.256 37.2007C208.099 37.1351 207.957 37.039 207.838 36.9181C207.719 36.7971 207.625 36.6536 207.562 36.496C207.498 36.3384 207.467 36.1698 207.47 36V36C207.47 35.6605 207.605 35.3349 207.845 35.0949C208.085 34.8549 208.411 34.72 208.75 34.72H228.75C229.084 34.7278 229.402 34.8661 229.636 35.1053C229.869 35.3445 230 35.6657 230 36V36C230.005 36.3378 229.877 36.664 229.643 36.9075C229.409 37.151 229.088 37.2921 228.75 37.3Z" fill="#263238"/>
<path d="M222.38 46H208.75C208.411 46 208.085 45.8651 207.845 45.6251C207.605 45.3851 207.47 45.0595 207.47 44.72C207.47 44.3805 207.605 44.0549 207.845 43.8149C208.085 43.5749 208.411 43.44 208.75 43.44H222.38C222.719 43.44 223.045 43.5749 223.285 43.8149C223.525 44.0549 223.66 44.3805 223.66 44.72C223.66 45.0595 223.525 45.3851 223.285 45.6251C223.045 45.8651 222.719 46 222.38 46Z" fill="#263238"/>
<path d="M228.75 54.6H208.75C208.411 54.6 208.085 54.4651 207.845 54.2251C207.605 53.9851 207.47 53.6595 207.47 53.32V53.32C207.465 53.1486 207.494 52.9778 207.556 52.8179C207.618 52.6579 207.711 52.5121 207.83 52.3889C207.95 52.2658 208.093 52.1679 208.251 52.1011C208.409 52.0343 208.578 51.9999 208.75 52H228.75C228.919 52.0039 229.086 52.0412 229.24 52.1098C229.394 52.1783 229.534 52.2768 229.65 52.3995C229.766 52.5223 229.857 52.6668 229.917 52.8248C229.977 52.9828 230.005 53.1511 230 53.32V53.32C230 53.6543 229.869 53.9755 229.636 54.2147C229.402 54.4539 229.084 54.5922 228.75 54.6Z" fill="#263238"/>
<path d="M86.16 155.18V204.38L72.92 217.62H37.76V155.18H86.16Z" fill="#FFB6BB" stroke="#263238" stroke-width="1.10721" stroke-linecap="round" stroke-linejoin="round"/>
<path d="M86.16 204.38L72.92 217.62V204.38H86.16Z" fill="#FFB6BB" stroke="#263238" stroke-width="1.10721" stroke-linecap="round" stroke-linejoin="round"/>
<path d="M49.55 163.14H78.76" stroke="#263238" stroke-width="1.10721" stroke-linecap="round" stroke-linejoin="round"/>
<path d="M45.15 168.64H78.76" stroke="#263238" stroke-width="1.10721" stroke-linecap="round" stroke-linejoin="round"/>
<path d="M45.15 174.14H78.76" stroke="#263238" stroke-width="1.10721" stroke-linecap="round" stroke-linejoin="round"/>
<path d="M45.15 179.64H78.76" stroke="#263238" stroke-width="1.10721" stroke-linecap="round" stroke-linejoin="round"/>
<path d="M45.15 185.14H78.76" stroke="#263238" stroke-width="1.10721" stroke-linecap="round" stroke-linejoin="round"/>
<path d="M45.15 190.64H78.76" stroke="#263238" stroke-width="1.10721" stroke-linecap="round" stroke-linejoin="round"/>
<path d="M45.15 196.13H78.76" stroke="#263238" stroke-width="1.10721" stroke-linecap="round" stroke-linejoin="round"/>
<path d="M45.15 201.63H74.37" stroke="#263238" stroke-width="1.10721" stroke-linecap="round" stroke-linejoin="round"/>
<path d="M88.46 163.14H94.11V212.34L80.88 225.58H45.72V219.76" fill="#FFB6BB"/>
<path d="M88.46 163.14H94.11V212.34L80.88 225.58H45.72V219.76" stroke="#263238" stroke-width="1.10721" stroke-linecap="round" stroke-linejoin="round"/>
<path d="M94.11 212.34L80.88 225.58V212.34H94.11Z" fill="#FFB6BB" stroke="#263238" stroke-width="1.10721" stroke-linecap="round" stroke-linejoin="round"/>
<path d="M267.98 120.97H150.82C148.478 120.97 146.58 122.868 146.58 125.21V255.55C146.58 257.892 148.478 259.79 150.82 259.79H267.98C270.322 259.79 272.22 257.892 272.22 255.55V125.21C272.22 122.868 270.322 120.97 267.98 120.97Z" fill="#EFB167" stroke="#263238" stroke-width="1.10721" stroke-linecap="round" stroke-linejoin="round"/>
<g opacity="0.5">
<path d="M269.69 167.25H149.11" stroke="white" stroke-width="1.10721" stroke-linecap="round" stroke-linejoin="round"/>
<path d="M269.69 182.67H149.11" stroke="white" stroke-width="1.10721" stroke-linecap="round" stroke-linejoin="round"/>
<path d="M269.69 198.09H149.11" stroke="white" stroke-width="1.10721" stroke-linecap="round" stroke-linejoin="round"/>
<path d="M269.69 213.51H149.11" stroke="white" stroke-width="1.10721" stroke-linecap="round" stroke-linejoin="round"/>
<path d="M269.69 228.93H149.11" stroke="white" stroke-width="1.10721" stroke-linecap="round" stroke-linejoin="round"/>
<path d="M269.69 244.36H149.11" stroke="white" stroke-width="1.10721" stroke-linecap="round" stroke-linejoin="round"/>
<path d="M269.69 151.82H149.11" stroke="white" stroke-width="1.10721" stroke-linecap="round" stroke-linejoin="round"/>
<path d="M269.69 136.4H149.11" stroke="white" stroke-width="1.10721" stroke-linecap="round" stroke-linejoin="round"/>
<path d="M240.88 257.31V123.44" stroke="white" stroke-width="1.10721" stroke-linecap="round" stroke-linejoin="round"/>
<path d="M225.14 257.31V123.44" stroke="white" stroke-width="1.10721" stroke-linecap="round" stroke-linejoin="round"/>
<path d="M209.4 257.31V123.44" stroke="white" stroke-width="1.10721" stroke-linecap="round" stroke-linejoin="round"/>
<path d="M193.66 257.31V123.44" stroke="white" stroke-width="1.10721" stroke-linecap="round" stroke-linejoin="round"/>
<path d="M177.92 257.31V123.44" stroke="white" stroke-width="1.10721" stroke-linecap="round" stroke-linejoin="round"/>
<path d="M162.19 257.31V123.44" stroke="white" stroke-width="1.10721" stroke-linecap="round" stroke-linejoin="round"/>
<path d="M256.62 257.31V123.44" stroke="white" stroke-width="1.10721" stroke-linecap="round" stroke-linejoin="round"/>
</g>
<path d="M205 232.67C206.346 225.711 208.187 218.857 210.51 212.16C210.98 210.81 211.51 209.45 212.09 208C213.46 204.5 216.27 197.35 215.21 195.22C215.104 194.993 214.94 194.799 214.735 194.657C214.529 194.514 214.289 194.429 214.04 194.41C213.987 194.408 213.933 194.416 213.884 194.435C213.834 194.454 213.788 194.483 213.75 194.52C210.63 197.07 208.62 204.14 207.16 209.3L206.67 211.04C204.733 217.978 203.362 225.061 202.57 232.22" fill="#EFB167"/>
<path d="M205 232.67C206.346 225.711 208.187 218.857 210.51 212.16C210.98 210.81 211.51 209.45 212.09 208C213.46 204.5 216.27 197.35 215.21 195.22C215.104 194.993 214.94 194.799 214.735 194.657C214.529 194.514 214.289 194.429 214.04 194.41C213.987 194.408 213.933 194.416 213.884 194.435C213.834 194.454 213.788 194.483 213.75 194.52C210.63 197.07 208.62 204.14 207.16 209.3L206.67 211.04C204.733 217.978 203.362 225.061 202.57 232.22" stroke="#263238" stroke-width="1.10721" stroke-linecap="round" stroke-linejoin="round"/>
<path d="M209.63 233C210.923 226.45 212.67 219.997 214.86 213.69C215.3 212.4 215.86 211.05 216.39 209.63C218.58 204.06 221.3 197.16 219.34 193.21C218.853 192.225 218.105 191.393 217.178 190.804C216.25 190.215 215.179 189.892 214.08 189.87C212.92 189.859 211.793 190.259 210.9 191C206.67 194.45 204.53 202 202.81 208.06L202.32 209.79C200.384 216.668 199.003 223.691 198.19 230.79" fill="#EFB167"/>
<path d="M209.63 233C210.923 226.45 212.67 219.997 214.86 213.69C215.3 212.4 215.86 211.05 216.39 209.63C218.58 204.06 221.3 197.16 219.34 193.21C218.853 192.225 218.105 191.393 217.178 190.804C216.25 190.215 215.179 189.892 214.08 189.87C212.92 189.859 211.793 190.259 210.9 191C206.67 194.45 204.53 202 202.81 208.06L202.32 209.79C200.384 216.668 199.003 223.691 198.19 230.79" stroke="#263238" stroke-width="1.10721" stroke-linecap="round" stroke-linejoin="round"/>
<path d="M214.37 232.55C215.589 226.659 217.189 220.854 219.16 215.17C221.54 208.38 226.9 198.17 223.42 191.17C220.57 185.44 213.11 183.31 208.02 187.47C202.2 192.21 199.89 201.72 197.93 208.53C196.081 215.087 194.72 221.772 193.86 228.53" fill="#EFB167"/>
<path d="M214.37 232.55C215.589 226.659 217.189 220.854 219.16 215.17C221.54 208.38 226.9 198.17 223.42 191.17C220.57 185.44 213.11 183.31 208.02 187.47C202.2 192.21 199.89 201.72 197.93 208.53C196.081 215.087 194.72 221.772 193.86 228.53" stroke="#263238" stroke-width="1.10721" stroke-linecap="round" stroke-linejoin="round"/>
<path d="M219.35 231.17C220.438 226.263 221.813 221.425 223.47 216.68C223.86 215.55 224.36 214.29 224.89 212.94C227.73 205.71 231.27 196.7 227.5 189.12C226.255 186.619 224.343 184.51 221.975 183.028C219.606 181.545 216.874 180.746 214.08 180.72C210.819 180.71 207.658 181.838 205.14 183.91C198.68 189.18 196.14 198.27 194.03 205.56L193.55 207.25C191.865 213.186 190.585 219.23 189.72 225.34" fill="#EFB167"/>
<path d="M219.35 231.17C220.438 226.263 221.813 221.425 223.47 216.68C223.86 215.55 224.36 214.29 224.89 212.94C227.73 205.71 231.27 196.7 227.5 189.12C226.255 186.619 224.343 184.51 221.975 183.028C219.606 181.545 216.874 180.746 214.08 180.72C210.819 180.71 207.658 181.838 205.14 183.91C198.68 189.18 196.14 198.27 194.03 205.56L193.55 207.25C191.865 213.186 190.585 219.23 189.72 225.34" stroke="#263238" stroke-width="1.10721" stroke-linecap="round" stroke-linejoin="round"/>
<path d="M224.67 228.54C225.6 224.88 226.62 221.49 227.77 218.19C228.15 217.12 228.62 215.91 229.12 214.64C232.12 206.96 236.25 196.48 231.58 187.1C229.959 183.837 227.466 181.088 224.376 179.156C221.287 177.225 217.723 176.188 214.08 176.16C209.768 176.145 205.587 177.638 202.26 180.38C194.68 186.56 191.89 196.38 189.64 204.32L189.16 206C187.749 210.956 186.618 215.987 185.77 221.07" fill="#EFB167"/>
<path d="M224.67 228.54C225.6 224.88 226.62 221.49 227.77 218.19C228.15 217.12 228.62 215.91 229.12 214.64C232.12 206.96 236.25 196.48 231.58 187.1C229.959 183.837 227.466 181.088 224.376 179.156C221.287 177.225 217.723 176.188 214.08 176.16C209.768 176.145 205.587 177.638 202.26 180.38C194.68 186.56 191.89 196.38 189.64 204.32L189.16 206C187.749 210.956 186.618 215.987 185.77 221.07" stroke="#263238" stroke-width="1.10721" stroke-linecap="round" stroke-linejoin="round"/>
<path d="M230.16 224.09C231.16 216.77 237.06 208.09 237.64 197.94C238.17 188.64 235.11 182.68 232.94 179.69C232.424 178.953 232.097 178.102 231.985 177.209C231.873 176.317 231.982 175.411 232.3 174.57C233.751 170.309 233.701 165.679 232.16 161.45" fill="#EFB167"/>
<path d="M230.16 224.09C231.16 216.77 237.06 208.09 237.64 197.94C238.17 188.64 235.11 182.68 232.94 179.69C232.424 178.953 232.097 178.102 231.985 177.209C231.873 176.317 231.982 175.411 232.3 174.57C233.751 170.309 233.701 165.679 232.16 161.45" stroke="#263238" stroke-width="1.10721" stroke-linecap="round" stroke-linejoin="round"/>
<path d="M216.3 147.78C224 152.6 229 160.19 229.39 170C229.52 173.52 226.66 174.73 223.08 173.64C215.59 171.36 197.74 165.52 186.86 196.11C184.775 202.457 183.237 208.971 182.26 215.58" fill="#EFB167"/>
<path d="M216.3 147.78C224 152.6 229 160.19 229.39 170C229.52 173.52 226.66 174.73 223.08 173.64C215.59 171.36 197.74 165.52 186.86 196.11C184.775 202.457 183.237 208.971 182.26 215.58" stroke="#263238" stroke-width="1.10721" stroke-linecap="round" stroke-linejoin="round"/>
<path d="M201 148.28C205.805 148.215 210.554 149.327 214.83 151.52C222.14 155.45 226.74 164.69 224.39 167.04C221.78 169.65 216.93 163.35 202.1 169.43C194.97 172.35 189.91 178.3 186.47 185.06C184.919 188.148 183.608 191.351 182.55 194.64C181.171 198.871 180.036 203.179 179.15 207.54" fill="#EFB167"/>
<path d="M201 148.28C205.805 148.215 210.554 149.327 214.83 151.52C222.14 155.45 226.74 164.69 224.39 167.04C221.78 169.65 216.93 163.35 202.1 169.43C194.97 172.35 189.91 178.3 186.47 185.06C184.919 188.148 183.608 191.351 182.55 194.64C181.171 198.871 180.036 203.179 179.15 207.54" stroke="#263238" stroke-width="1.10721" stroke-linecap="round" stroke-linejoin="round"/>
<path d="M192.57 153.92C195.182 153.232 197.869 152.872 200.57 152.85C213.66 152.55 218.57 159.53 217.13 161.3C215.92 162.79 213.23 161.95 209.54 162.4C198.89 163.71 190.47 169.77 184.8 178.73C182.003 183.267 179.773 188.13 178.16 193.21C177.86 194.12 177.57 195.04 177.29 195.96" fill="#EFB167"/>
<path d="M192.57 153.92C195.182 153.232 197.869 152.872 200.57 152.85C213.66 152.55 218.57 159.53 217.13 161.3C215.92 162.79 213.23 161.95 209.54 162.4C198.89 163.71 190.47 169.77 184.8 178.73C182.003 183.267 179.773 188.13 178.16 193.21C177.86 194.12 177.57 195.04 177.29 195.96" stroke="#263238" stroke-width="1.10721" stroke-linecap="round" stroke-linejoin="round"/>
<path d="M186.4 161.45C190.763 157.926 196.257 156.107 201.86 156.33C203.52 156.33 207.62 156.87 208.17 158.44C208.9 160.5 202.24 157.7 192.59 164.13C180.22 172.38 178.72 180.2 178.72 180.2" fill="#EFB167"/>
<path d="M186.4 161.45C190.763 157.926 196.257 156.107 201.86 156.33C203.52 156.33 207.62 156.87 208.17 158.44C208.9 160.5 202.24 157.7 192.59 164.13C180.22 172.38 178.72 180.2 178.72 180.2" stroke="#263238" stroke-width="1.10721" stroke-linecap="round" stroke-linejoin="round"/>
<path d="M235.41 218.55C235.41 218.55 242.12 204.06 241.41 192.86C240.97 185.65 237.41 181.13 236.85 177.92C236.29 174.71 237.85 173.92 237.43 170.98" fill="#EFB167"/>
<path d="M235.41 218.55C235.41 218.55 242.12 204.06 241.41 192.86C240.97 185.65 237.41 181.13 236.85 177.92C236.29 174.71 237.85 173.92 237.43 170.98" stroke="#263238" stroke-width="1.10721" stroke-linecap="round" stroke-linejoin="round"/>
<path d="M155.04 150.34V129.88H175.5" fill="#EFB167"/>
<path d="M155.04 150.34V129.88H175.5" stroke="#263238" stroke-width="1.10721" stroke-linecap="round" stroke-linejoin="round"/>
<path d="M175.5 250.88H155.04V230.42" fill="#EFB167"/>
<path d="M175.5 250.88H155.04V230.42" stroke="#263238" stroke-width="1.10721" stroke-linecap="round" stroke-linejoin="round"/>
<path d="M263.77 150.34V129.88H243.31" fill="#EFB167"/>
<path d="M263.77 150.34V129.88H243.31" stroke="#263238" stroke-width="1.10721" stroke-linecap="round" stroke-linejoin="round"/>
<path d="M243.31 250.88H263.77V230.42" fill="#EFB167"/>
<path d="M243.31 250.88H263.77V230.42" stroke="#263238" stroke-width="1.10721" stroke-linecap="round" stroke-linejoin="round"/>
<path d="M350.68 439C345.34 431 339.74 422.56 335.14 415.57C329.26 406.66 325.02 400.15 325.02 400.15C322.77 389.62 319.58 385.49 316.37 376.84C313.16 368.19 315.81 360.48 317.14 349.77C318.47 339.06 316.37 329.08 315.25 322.31C314.13 315.54 315.44 309.15 315.25 307.65C315.06 306.15 308.67 298.25 306.25 292.42C305.153 289.82 303.622 287.425 301.72 285.34C299.619 282.936 296.991 281.05 294.04 279.83C292.811 279.346 291.528 279.011 290.22 278.83C287.22 278.4 284.8 278.88 282.38 278.88C278.99 278.88 271.85 273.06 267.15 272.13C266.278 271.957 265.396 271.834 264.51 271.76V271.76C260.62 271.39 256.51 271.76 251.96 272.12C247.41 272.48 242.12 268.17 237.86 266.82H237.79C236.847 266.491 235.842 266.381 234.85 266.5C230.34 267.25 221.85 268 221.85 268C221.85 268 221.1 262.18 220.72 254.28C220.65 252.91 220.55 251.59 220.43 250.28C219.99 245.4 219.29 241.04 219.18 237.05C219.18 236.05 219.18 234.98 219.18 233.98C219.55 228.36 219.38 223.98 219.18 215.34C219.18 215.05 219.18 214.74 219.18 214.43C219.18 211.74 219.18 209.17 219.02 206.85C218.71 201.22 217.46 197.06 211.86 196.2C206.97 195.45 203.59 197.89 201.52 205.98C199.45 214.07 197.95 213.5 197.39 225.34C196.83 237.18 194.18 244.72 194.56 250.73C194.94 256.74 193.62 268.4 193.62 268.4C191.37 267.27 189.3 268.21 188.91 269.15C188.52 270.09 186.86 279.31 185.53 285.89C184.37 291.74 179.04 297.15 177.08 301.18V301.27C176.87 301.705 176.696 302.157 176.56 302.62C175.43 306.76 176 315.62 176 326.88C176 338.14 173.18 349.82 176 357.33C176.601 358.86 177.441 360.285 178.49 361.55C182.82 366.9 190.77 371.55 198 380.08C207 390.8 213.42 398.7 219.43 402.28C223.74 404.82 225.63 406.9 226.43 409.64C226.744 410.828 226.909 412.051 226.92 413.28C227 415.68 228.3 417.51 230.5 420.55C233.932 425.2 236.944 430.146 239.5 435.33C241.91 440.16 245.6 449.33 249.5 459.49L350.68 439Z" fill="#F6E5CC"/>
<path opacity="0.4" d="M219.15 233.93C219.09 234.93 219.08 235.93 219.15 237C211.96 235.64 198.08 239.19 197.87 243.43C197.63 248.6 197 260.82 199.63 263.67C202.26 266.52 207.9 268.34 207.9 268.34C207.484 268.372 207.07 268.425 206.66 268.5V268.5H206.52C204.72 268.879 203.08 269.8 201.82 271.14V271.14C196.32 276.78 196.09 289.28 197.89 295.3C205.42 320.3 193.23 340.08 188.89 337.68C184.55 335.28 184.2 313.79 185.51 308.76C186.301 305.826 186.688 302.798 186.66 299.76C184.74 299.12 180.71 300.05 177.01 301.2V301.11C179.01 297.11 184.3 291.67 185.46 285.82C186.79 279.24 188.46 270.02 188.84 269.08C189.22 268.14 191.3 267.2 193.55 268.33C193.55 268.33 194.87 256.68 194.49 250.66C194.11 244.64 196.75 237.12 197.32 225.27C197.89 213.42 199.38 214 201.45 205.91C203.52 197.82 206.9 195.38 211.79 196.13C217.39 196.99 218.64 201.13 218.95 206.78C218.321 206.183 217.653 205.629 216.95 205.12C215.179 203.745 212.954 203.087 210.72 203.28C208.13 203.64 205.86 206.28 204.42 209C202.35 213 202.01 217.29 204.92 215.82C208.22 214.17 215.03 214.72 219.18 215.27C219.35 223.9 219.52 228.31 219.15 233.93Z" fill="#E3C392"/>
<path opacity="0.4" d="M226.83 413.25C226.819 412.021 226.654 410.798 226.34 409.61V409.61C225.55 406.87 223.66 404.79 219.34 402.25C213.34 398.67 206.93 390.77 197.91 380.05C190.68 371.48 182.73 366.87 178.4 361.52C183.85 364.47 191.25 362.95 193.58 367.62C196.97 374.36 212.89 384.62 212.89 384.62C228.43 400 226.83 413.25 226.83 413.25Z" fill="#E3C392"/>
<path opacity="0.4" d="M237.7 266.78C235.87 266.41 230.91 278.64 230.44 282.98C229.19 294.23 234.96 328.91 227.54 328.13C224.47 327.81 220.87 311.61 220.66 304.06C219.99 281.13 220.91 271.6 220.91 271.6C220.91 271.6 219.27 258.9 220.37 250.25C220.49 251.55 220.59 252.87 220.66 254.25C221.04 262.15 221.79 267.97 221.79 267.97C221.79 267.97 230.25 267.22 234.79 266.47C235.771 266.353 236.766 266.459 237.7 266.78Z" fill="#E3C392"/>
<path opacity="0.4" d="M264.42 271.75C260.42 272.11 256.42 276.02 253.13 276.75C249.13 277.6 241.78 268.59 237.77 266.83C242.03 268.18 247.37 272.42 251.87 272.13C256.37 271.84 260.53 271.38 264.42 271.75Z" fill="#E3C392"/>
<path opacity="0.4" d="M290.17 278.82C288.188 281.302 286.593 284.07 285.44 287.03C282.22 297.44 285.26 336.83 280.07 330.38C273.31 322 280.37 292.93 275.44 281.83C273.88 278.28 268.31 272.6 267.1 272.12C271.8 273.05 278.94 278.87 282.33 278.87C284.75 278.87 287.18 278.39 290.17 278.82Z" fill="#E3C392"/>
<path opacity="0.4" d="M335.12 415.56C329.85 409.62 324.33 403.96 320.72 401.84C311.93 396.66 309.41 391.3 308.65 382.37C307.89 373.44 310.16 373.63 312.79 364.8C315.42 355.97 310.53 345.05 310.91 347.41C311.29 349.77 307.14 366.11 304.09 366.92C301.04 367.73 300.01 356.71 299.63 347.73C299.25 338.75 304.14 296.93 302.77 288.73C302.584 287.54 302.213 286.386 301.67 285.31C303.572 287.395 305.104 289.79 306.2 292.39C308.65 298.22 315.04 306.12 315.2 307.62C315.36 309.12 314.07 315.52 315.2 322.28C316.33 329.04 318.4 339.01 317.09 349.74C315.78 360.47 313.09 368.16 316.32 376.81C319.55 385.46 322.72 389.59 324.97 400.12C325 400.14 329.24 406.65 335.12 415.56Z" fill="#E3C392"/>
<path opacity="0.4" d="M255.75 294C257.75 296.1 259.01 323.62 260.14 330.39C261.27 337.16 257.76 353.39 255.75 348.45C253.74 343.51 247.61 285.44 255.75 294Z" fill="#E3C392"/>
<path d="M248 455.6C244.68 447.02 241.61 439.51 239.51 435.3C236.954 430.116 233.942 425.17 230.51 420.52C228.31 417.52 227.01 415.65 226.93 413.25C226.919 412.021 226.754 410.798 226.44 409.61V409.61C225.65 406.87 223.76 404.79 219.44 402.25C213.44 398.67 207.03 390.77 198.01 380.05C190.78 371.48 182.83 366.87 178.5 361.52C177.451 360.255 176.611 358.83 176.01 357.3C173.19 349.79 176.01 338.12 176.01 326.85C176.01 315.58 175.44 306.73 176.57 302.59C176.706 302.127 176.88 301.675 177.09 301.24V301.15C179.09 297.15 184.38 291.71 185.54 285.86C186.87 279.28 188.54 270.06 188.92 269.12C189.3 268.18 191.38 267.24 193.63 268.37C193.63 268.37 194.95 256.72 194.57 250.7C194.19 244.68 196.83 237.16 197.4 225.31C197.97 213.46 199.46 214.04 201.53 205.95C203.6 197.86 206.98 195.42 211.87 196.17C217.47 197.03 218.72 201.17 219.03 206.82C219.16 209.14 219.14 211.71 219.19 214.4C219.19 214.71 219.19 215.02 219.19 215.31C219.37 223.92 219.54 228.31 219.19 233.95C219.13 234.95 219.12 235.95 219.19 237.02C219.3 241.02 220 245.37 220.44 250.25C220.56 251.55 220.66 252.87 220.73 254.25C221.11 262.15 221.86 267.97 221.86 267.97C221.86 267.97 230.32 267.22 234.86 266.47C235.852 266.351 236.857 266.461 237.8 266.79H237.87C242.13 268.14 247.47 272.38 251.97 272.09C256.47 271.8 260.63 271.36 264.52 271.73C265.406 271.804 266.288 271.927 267.16 272.1C271.86 273.03 279 278.85 282.39 278.85C284.81 278.85 287.24 278.37 290.23 278.8C291.538 278.981 292.821 279.316 294.05 279.8C297.001 281.02 299.629 282.906 301.73 285.31C303.632 287.395 305.163 289.79 306.26 292.39C308.71 298.22 315.1 306.12 315.26 307.62C315.42 309.12 314.13 315.52 315.26 322.28C316.39 329.04 318.46 339.01 317.15 349.74C315.84 360.47 313.15 368.16 316.38 376.81C319.61 385.46 322.78 389.59 325.03 400.12C325.03 400.12 329.27 406.63 335.15 415.54C339.23 421.73 344.09 429.09 348.87 436.24" stroke="#263238" stroke-width="1.10721" stroke-linecap="round" stroke-linejoin="round"/>
<path d="M193.58 268.34C193.58 276.62 192.83 286.89 191.58 291.16C190.33 295.43 191.17 309.71 188.87 315.72" stroke="#263238" stroke-width="1.10721" stroke-linecap="round" stroke-linejoin="round"/>
<path d="M197.85 274.86C197.85 274.86 203.61 268.34 207.85 268.34C212.09 268.34 216.38 271.1 220.85 271.6C225.32 272.1 230.06 268.77 234.39 267.97" stroke="#263238" stroke-width="1.10721" stroke-linecap="round" stroke-linejoin="round"/>
<path d="M201.1 244.69C201.1 244.69 208.88 241.85 212.89 244.69" stroke="#263238" stroke-width="1.10721" stroke-linecap="round" stroke-linejoin="round"/>
<path d="M207 241C207 241 209.38 240.35 212.89 242.05" stroke="#263238" stroke-width="1.10721" stroke-linecap="round" stroke-linejoin="round"/>
<path d="M204.92 221C207.554 220.414 210.286 220.414 212.92 221" stroke="#263238" stroke-width="1.10721" stroke-linecap="round" stroke-linejoin="round"/>
<path d="M177 301.11C177 301.11 182 298.68 184 298.43" stroke="#263238" stroke-width="1.10721" stroke-linecap="round" stroke-linejoin="round"/>
<path d="M190.21 308.81C190.21 308.81 187.21 313.47 186.65 315.72" stroke="#263238" stroke-width="1.10721" stroke-linecap="round" stroke-linejoin="round"/>
<path d="M204.92 200.66C204.92 200.66 203.72 210.23 204.92 211.08C206.12 211.93 215.39 212.74 216.15 211.08C216.91 209.42 217.04 202.41 217.04 202.41C217.04 202.41 211.49 192.88 204.92 200.66Z" stroke="#263238" stroke-width="1.10721" stroke-linecap="round" stroke-linejoin="round"/>
<path d="M185.5 285.83C185.5 285.83 193.19 281.95 193.37 276.4C193.55 270.85 191.29 270.91 188.43 270.88" stroke="#263238" stroke-width="1.10721" stroke-linecap="round" stroke-linejoin="round"/>
<path d="M305.39 298.43C305.64 307.2 303.14 332.77 302.88 336.53C302.62 340.29 302.88 349.9 302.88 349.9" stroke="#263238" stroke-width="1.10721" stroke-linecap="round" stroke-linejoin="round"/>
<path d="M250.49 278.35C258.76 290.35 250.49 285.83 255.75 343.3" stroke="#263238" stroke-width="1.10721" stroke-linecap="round" stroke-linejoin="round"/>
<path d="M325 400.14C325 400.14 317.67 394.44 316.41 391.14" stroke="#263238" stroke-width="1.10721" stroke-linecap="round" stroke-linejoin="round"/>
<path d="M222.66 397.44C224.86 401.09 226.25 409.09 226.33 409.58" stroke="#263238" stroke-width="1.10721" stroke-linecap="round" stroke-linejoin="round"/>
</svg>